  0
SECTION
  2
HEADER
  9
$ACADVER
  1
AC1015
  9
$ACADMAINTVER
 70
     6
  9
$DWGCODEPAGE
  3
ANSI_1252
  9
$INSBASE
 10
0.0
 20
0.0
 30
0.0
  9
$EXTMIN
 10
0.0
 20
0.0
 30
0.0
  9
$EXTMAX
 10
11.0
 20
8.5
 30
0.0
  9
$LIMMIN
 10
0.0
 20
0.0
  9
$LIMMAX
 10
11.0
 20
8.5
  9
$ORTHOMODE
 70
     0
  9
$REGENMODE
 70
     1
  9
$FILLMODE
 70
     1
  9
$QTEXTMODE
 70
     0
  9
$MIRRTEXT
 70
     1
  9
$LTSCALE
 40
1.0
  9
$ATTMODE
 70
     1
  9
$TEXTSIZE
 40
0.25
  9
$TRACEWID
 40
0.05
  9
$TEXTSTYLE
  7
Standard
  9
$CLAYER
  8
0
  9
$CELTYPE
  6
ByLayer
  9
$CECOLOR
 62
   256
  9
$CELTSCALE
 40
1.0
  9
$DISPSILH
 70
     0
  9
$DIMSCALE
 40
1.0
  9
$DIMASZ
 40
0.236
  9
$DIMEXO
 40
0.039
  9
$DIMDLI
 40
0.38
  9
$DIMRND
 40
0.0
  9
$DIMDLE
 40
0.0
  9
$DIMEXE
 40
0.039
  9
$DIMTP
 40
0.0
  9
$DIMTM
 40
0.0
  9
$DIMTXT
 40
0.25
  9
$DIMCEN
 40
0.09
  9
$DIMTSZ
 40
0.0
  9
$DIMTOL
 70
     0
  9
$DIMLIM
 70
     0
  9
$DIMTIH
 70
     1
  9
$DIMTOH
 70
     1
  9
$DIMSE1
 70
     0
  9
$DIMSE2
 70
     0
  9
$DIMTAD
 70
     1
  9
$DIMZIN
 70
     0
  9
$DIMBLK
  1

  9
$DIMASO
 70
     1
  9
$DIMSHO
 70
     1
  9
$DIMPOST
  1

  9
$DIMAPOST
  1

  9
$DIMALT
 70
     0
  9
$DIMALTD
 70
     2
  9
$DIMALTF
 40
25.4
  9
$DIMLFAC
 40
1.0
  9
$DIMTOFL
 70
     0
  9
$DIMTVP
 40
0.0
  9
$DIMTIX
 70
     0
  9
$DIMSOXD
 70
     0
  9
$DIMSAH
 70
     0
  9
$DIMBLK1
  1

  9
$DIMBLK2
  1

  9
$DIMSTYLE
  2
Standard
  9
$DIMCLRD
 70
     0
  9
$DIMCLRE
 70
     0
  9
$DIMCLRT
 70
     0
  9
$DIMTFAC
 40
1.0
  9
$DIMGAP
 40
0.06
  9
$DIMJUST
 70
     0
  9
$DIMSD1
 70
     0
  9
$DIMSD2
 70
     0
  9
$DIMTOLJ
 70
     1
  9
$DIMTZIN
 70
     0
  9
$DIMALTZ
 70
     0
  9
$DIMALTTZ
 70
     0
  9
$DIMUPT
 70
     0
  9
$DIMDEC
 70
     4
  9
$DIMTDEC
 70
     4
  9
$DIMALTU
 70
     2
  9
$DIMALTTD
 70
     2
  9
$DIMTXSTY
  7
Standard
  9
$DIMAUNIT
 70
     0
  9
$DIMADEC
 70
     0
  9
$DIMALTRND
 40
0.0
  9
$DIMAZIN
 70
     0
  9
$DIMDSEP
 70
    46
  9
$DIMATFIT
 70
     3
  9
$DIMFRAC
 70
     0
  9
$DIMLDRBLK
  1

  9
$DIMLUNIT
 70
     2
  9
$DIMLWD
 70
    -2
  9
$DIMLWE
 70
    -2
  9
$DIMTMOVE
 70
     0
  9
$LUNITS
 70
     2
  9
$LUPREC
 70
     3
  9
$SKETCHINC
 40
0.1
  9
$FILLETRAD
 40
0.5
  9
$AUNITS
 70
     0
  9
$AUPREC
 70
     0
  9
$MENU
  1
.
  9
$ELEVATION
 40
0.0
  9
$PELEVATION
 40
0.0
  9
$THICKNESS
 40
0.0
  9
$LIMCHECK
 70
     0
  9
$CHAMFERA
 40
0.5
  9
$CHAMFERB
 40
0.5
  9
$CHAMFERC
 40
1.0
  9
$CHAMFERD
 40
0.0
  9
$SKPOLY
 70
     0
  9
$TDCREATE
 40
2456272.401809456
  9
$TDUCREATE
 40
2456272.610142789
  9
$TDUPDATE
 40
2456272.401809467
  9
$TDUUPDATE
 40
2456272.610142801
  9
$TDINDWG
 40
0.0000000116
  9
$TDUSRTIMER
 40
0.0000000116
  9
$USRTIMER
 70
     1
  9
$ANGBASE
 50
0.0
  9
$ANGDIR
 70
     0
  9
$PDMODE
 70
     0
  9
$PDSIZE
 40
-1.0
  9
$PLINEWID
 40
0.0
  9
$SPLFRAME
 70
     0
  9
$SPLINETYPE
 70
     6
  9
$SPLINESEGS
 70
     8
  9
$HANDSEED
  5
1F5
  9
$SURFTAB1
 70
     6
  9
$SURFTAB2
 70
     6
  9
$SURFTYPE
 70
     6
  9
$SURFU
 70
     6
  9
$SURFV
 70
     6
  9
$UCSBASE
  2

  9
$UCSNAME
  2

  9
$UCSORG
 10
0.0
 20
0.0
 30
0.0
  9
$UCSXDIR
 10
1.0
 20
0.0
 30
0.0
  9
$UCSYDIR
 10
0.0
 20
1.0
 30
0.0
  9
$UCSORTHOREF
  2

  9
$UCSORTHOVIEW
 70
     0
  9
$UCSORGTOP
 10
0.0
 20
0.0
 30
0.0
  9
$UCSORGBOTTOM
 10
0.0
 20
0.0
 30
0.0
  9
$UCSORGLEFT
 10
0.0
 20
0.0
 30
0.0
  9
$UCSORGRIGHT
 10
0.0
 20
0.0
 30
0.0
  9
$UCSORGFRONT
 10
0.0
 20
0.0
 30
0.0
  9
$UCSORGBACK
 10
0.0
 20
0.0
 30
0.0
  9
$PUCSBASE
  2

  9
$PUCSNAME
  2

  9
$PUCSORG
 10
0.0
 20
0.0
 30
0.0
  9
$PUCSXDIR
 10
1.0
 20
0.0
 30
0.0
  9
$PUCSYDIR
 10
0.0
 20
1.0
 30
0.0
  9
$PUCSORTHOREF
  2

  9
$PUCSORTHOVIEW
 70
     0
  9
$PUCSORGTOP
 10
0.0
 20
0.0
 30
0.0
  9
$PUCSORGBOTTOM
 10
0.0
 20
0.0
 30
0.0
  9
$PUCSORGLEFT
 10
0.0
 20
0.0
 30
0.0
  9
$PUCSORGRIGHT
 10
0.0
 20
0.0
 30
0.0
  9
$PUCSORGFRONT
 10
0.0
 20
0.0
 30
0.0
  9
$PUCSORGBACK
 10
0.0
 20
0.0
 30
0.0
  9
$USERI1
 70
     0
  9
$USERI2
 70
     0
  9
$USERI3
 70
     0
  9
$USERI4
 70
     0
  9
$USERI5
 70
     0
  9
$USERR1
 40
0.0
  9
$USERR2
 40
0.0
  9
$USERR3
 40
0.0
  9
$USERR4
 40
0.0
  9
$USERR5
 40
0.0
  9
$WORLDVIEW
 70
     1
  9
$SHADEDGE
 70
     3
  9
$SHADEDIF
 70
    70
  9
$TILEMODE
 70
     1
  9
$MAXACTVP
 70
    64
  9
$PINSBASE
 10
0.0
 20
0.0
 30
0.0
  9
$PLIMCHECK
 70
     0
  9
$PEXTMIN
 10
1.0000000000E+20
 20
1.0000000000E+20
 30
1.0000000000E+20
  9
$PEXTMAX
 10
-1.0000000000E+20
 20
-1.0000000000E+20
 30
-1.0000000000E+20
  9
$PLIMMIN
 10
0.0
 20
0.0
  9
$PLIMMAX
 10
12.0
 20
9.0
  9
$UNITMODE
 70
     0
  9
$VISRETAIN
 70
     1
  9
$PLINEGEN
 70
     0
  9
$PSLTSCALE
 70
     1
  9
$TREEDEPTH
 70
  3020
  9
$CMLSTYLE
  2
Standard
  9
$CMLJUST
 70
     0
  9
$CMLSCALE
 40
1.0
  9
$PROXYGRAPHICS
 70
     1
  9
$MEASUREMENT
 70
     0
  9
$CELWEIGHT
370
    -1
  9
$ENDCAPS
280
     0
  9
$JOINSTYLE
280
     0
  9
$LWDISPLAY
290
     1
  9
$INSUNITS
 70
     1
  9
$HYPERLINKBASE
  1

  9
$STYLESHEET
  1

  9
$XEDIT
290
     1
  9
$CEPSNTYPE
380
     0
  9
$PSTYLEMODE
290
     1
  9
$FINGERPRINTGUID
  2
{71F8FA71-15FA-4FBF-9F3D-C12465178F69}
  9
$VERSIONGUID
  2
{FAEB1C32-E019-11D5-929B-00C0DF256EC4}
  9
$EXTNAMES
290
     1
  9
$PSVPSCALE
 40
0.0
  9
$OLESTARTUP
290
     0
  0
ENDSEC
  0
SECTION
  2
CLASSES
  0
CLASS
  1
ACDBDICTIONARYWDFLT
  2
AcDbDictionaryWithDefault
  3
ObjectDBX Classes
 90
        0
280
     0
281
     0
  0
CLASS
  1
VISUALSTYLE
  2
AcDbVisualStyle
  3
ObjectDBX Classes
 90
     4095
280
     0
281
     0
  0
CLASS
  1
SCALE
  2
AcDbScale
  3
ObjectDBX Classes
 90
     1153
280
     0
281
     0
  0
CLASS
  1
DICTIONARYVAR
  2
AcDbDictionaryVar
  3
ObjectDBX Classes
 90
        0
280
     0
281
     0
  0
CLASS
  1
ACDBPLACEHOLDER
  2
AcDbPlaceHolder
  3
ObjectDBX Classes
 90
        0
280
     0
281
     0
  0
CLASS
  1
LAYOUT
  2
AcDbLayout
  3
ObjectDBX Classes
 90
        0
280
     0
281
     0
  0
ENDSEC
  0
SECTION
  2
TABLES
  0
TABLE
  2
VPORT
  5
8
330
0
100
AcDbSymbolTable
 70
     1
  0
VPORT
  5
29
330
8
100
AcDbSymbolTableRecord
100
AcDbViewportTableRecord
  2
*Active
 70
     0
 10
0.0
 20
0.0
 11
1.0
 21
1.0
 12
5.5
 22
4.25
 13
0.0
 23
0.0
 14
0.5
 24
0.5
 15
0.5
 25
0.5
 16
0.0
 26
0.0
 36
1.0
 17
0.0
 27
0.0
 37
0.0
 40
8.5
 41
1.2941176471
 42
50.0
 43
0.0
 44
0.0
 50
0.0
 51
0.0
 71
     0
 72
  2000
 73
     1
 74
     3
 75
     0
 76
     0
 77
     0
 78
     0
281
     0
 65
     1
110
0.0
120
0.0
130
0.0
111
1.0
121
0.0
131
0.0
112
0.0
122
1.0
132
0.0
 79
     0
146
0.0
  0
ENDTAB
  0
TABLE
  2
LTYPE
  5
5
330
0
100
AcDbSymbolTable
 70
     6
  0
LTYPE
  5
14
330
5
100
AcDbSymbolTableRecord
100
AcDbLinetypeTableRecord
  2
ByBlock
 70
     0
  3

 72
    65
 73
     0
 40
0.0
  0
LTYPE
  5
15
330
5
100
AcDbSymbolTableRecord
100
AcDbLinetypeTableRecord
  2
ByLayer
 70
     0
  3

 72
    65
 73
     0
 40
0.0
  0
LTYPE
  5
16
330
5
100
AcDbSymbolTableRecord
100
AcDbLinetypeTableRecord
  2
Continuous
 70
     0
  3
Solid line
 72
    65
 73
     0
 40
0.0
  0
LTYPE
  5
5D
330
5
100
AcDbSymbolTableRecord
100
AcDbLinetypeTableRecord
  2
HIDDEN
 70
     0
  3
Hidden __ __ __ __ __ __ __ __ __ __ __ __ __ __
 72
    65
 73
     2
 40
0.075
 49
0.05
 74
     0
 49
-0.025
 74
     0
  0
LTYPE
  5
5E
330
5
100
AcDbSymbolTableRecord
100
AcDbLinetypeTableRecord
  2
PHANTOM
 70
     0
  3
Phantom ______  __  __  ______  __  __  ______
 72
    65
 73
     6
 40
0.5
 49
0.25
 74
     0
 49
-0.05
 74
     0
 49
0.05
 74
     0
 49
-0.05
 74
     0
 49
0.05
 74
     0
 49
-0.05
 74
     0
  0
LTYPE
  5
5F
330
5
100
AcDbSymbolTableRecord
100
AcDbLinetypeTableRecord
  2
CENTER
 70
     0
  3
Center ____ _ ____ _ ____ _ ____ _ ____ _ ____
 72
    65
 73
     4
 40
0.4
 49
0.25
 74
     0
 49
-0.05
 74
     0
 49
0.05
 74
     0
 49
-0.05
 74
     0
  0
LTYPE
  5
60
330
5
100
AcDbSymbolTableRecord
100
AcDbLinetypeTableRecord
  2
CENTERX2
 70
     0
  3
Center (2x) ________  __  ________  __  _____
 72
    65
 73
     4
 40
0.8
 49
0.5
 74
     0
 49
-0.1
 74
     0
 49
0.1
 74
     0
 49
-0.1
 74
     0
  0
LTYPE
  5
61
330
5
100
AcDbSymbolTableRecord
100
AcDbLinetypeTableRecord
  2
DOT2
 70
     0
  3
Dot (.5x) ........................................
 72
    65
 73
     2
 40
0.025
 49
0.0
 74
     0
 49
-0.025
 74
     0
  0
ENDTAB
  0
TABLE
  2
LAYER
  5
2
330
0
100
AcDbSymbolTable
 70
     2
  0
LAYER
  5
10
330
2
100
AcDbSymbolTableRecord
100
AcDbLayerTableRecord
  2
0
 70
     0
 62
     7
  6
Continuous
370
    -3
390
F
  0
LAYER
  5
62
330
2
100
AcDbSymbolTableRecord
100
AcDbLayerTableRecord
  2
FORMAT
 70
     0
 62
     7
  6
Continuous
370
    -3
390
F
  0
ENDTAB
  0
TABLE
  2
STYLE
  5
3
330
0
100
AcDbSymbolTable
 70
     2
  0
STYLE
  5
11
330
3
100
AcDbSymbolTableRecord
100
AcDbTextStyleTableRecord
  2
Standard
 70
     0
 40
0.0
 41
1.0
 50
0.0
 71
     0
 42
0.2
  3
txt
  4

  0
STYLE
  5
66
330
3
100
AcDbSymbolTableRecord
100
AcDbTextStyleTableRecord
  2
SLDTEXTSTYLE0
 70
     0
 40
0.0
 41
0.75
 50
0.0
 71
     0
 42
0.2
  3
TXT
  4

  0
ENDTAB
  0
TABLE
  2
VIEW
  5
6
330
0
100
AcDbSymbolTable
 70
     0
  0
ENDTAB
  0
TABLE
  2
UCS
  5
7
330
0
100
AcDbSymbolTable
 70
     0
  0
ENDTAB
  0
TABLE
  2
APPID
  5
9
330
0
100
AcDbSymbolTable
 70
     1
  0
APPID
  5
12
330
9
100
AcDbSymbolTableRecord
100
AcDbRegAppTableRecord
  2
ACAD
 70
     0
  0
ENDTAB
  0
TABLE
  2
DIMSTYLE
  5
A
330
0
100
AcDbSymbolTable
 70
     1
100
AcDbDimStyleTable
  0
DIMSTYLE
105
27
330
A
100
AcDbSymbolTableRecord
100
AcDbDimStyleTableRecord
  2
Standard
 70
     0
340
11
  0
ENDTAB
  0
TABLE
  2
BLOCK_RECORD
  5
1
330
0
100
AcDbSymbolTable
 70
     4
  0
BLOCK_RECORD
  5
1F
330
1
100
AcDbSymbolTableRecord
100
AcDbBlockTableRecord
  2
*Model_Space
340
22
  0
BLOCK_RECORD
  5
1B
330
1
100
AcDbSymbolTableRecord
100
AcDbBlockTableRecord
  2
*Paper_Space
340
1E
  0
BLOCK_RECORD
  5
23
330
1
100
AcDbSymbolTableRecord
100
AcDbBlockTableRecord
  2
*Paper_Space0
340
26
  0
BLOCK_RECORD
  5
63
330
1
100
AcDbSymbolTableRecord
100
AcDbBlockTableRecord
  2
SW_NOTE_0
340
0
102
{BLKREFS
331
6A
102
}
  0
BLOCK_RECORD
  5
6B
330
1
100
AcDbSymbolTableRecord
100
AcDbBlockTableRecord
  2
SW_NOTE_1
340
0
102
{BLKREFS
331
70
102
}
  0
BLOCK_RECORD
  5
71
330
1
100
AcDbSymbolTableRecord
100
AcDbBlockTableRecord
  2
SW_NOTE_2
340
0
102
{BLKREFS
331
76
102
}
  0
ENDTAB
  0
ENDSEC
  0
SECTION
  2
BLOCKS
  0
BLOCK
  5
20
330
1F
100
AcDbEntity
  8
0
100
AcDbBlockBegin
  2
*Model_Space
 70
     0
 10
0.0
 20
0.0
 30
0.0
  3
*Model_Space
  1

  0
ENDBLK
  5
21
330
1F
100
AcDbEntity
  8
0
100
AcDbBlockEnd
  0
BLOCK
  5
1C
330
1B
100
AcDbEntity
 67
     1
  8
0
100
AcDbBlockBegin
  2
*Paper_Space
 70
     0
 10
0.0
 20
0.0
 30
0.0
  3
*Paper_Space
  1

  0
ENDBLK
  5
1D
330
1B
100
AcDbEntity
 67
     1
  8
0
100
AcDbBlockEnd
  0
BLOCK
  5
24
330
23
100
AcDbEntity
  8
0
100
AcDbBlockBegin
  2
*Paper_Space0
 70
     0
 10
0.0
 20
0.0
 30
0.0
  3
*Paper_Space0
  1

  0
ENDBLK
  5
25
330
23
100
AcDbEntity
  8
0
100
AcDbBlockEnd
  0
BLOCK
  5
64
330
63
100
AcDbEntity
  8
0
100
AcDbBlockBegin
  2
SW_NOTE_0
 70
     0
 10
0.0
 20
0.0
 30
0.0
  3
SW_NOTE_0
  1

  0
MTEXT
  5
67
330
63
100
AcDbEntity
  8
FORMAT
 62
     0
100
AcDbMText
 10
0.0
 20
0.1342778896
 30
0.0
 40
0.1041666667
 41
0.0
 71
     1
 72
     1
  1
1/16" gray, white epoxy silk 
  7
SLDTEXTSTYLE0
 73
     1
 44
1.0
  0
MTEXT
  5
68
330
63
100
AcDbEntity
  8
FORMAT
 62
     0
100
AcDbMText
 10
0.0
 20
-0.0046109977
 30
0.0
 40
0.1041666667
 41
0.0
 71
     1
 72
     1
  1
on first surface (no cutouts), 
  7
SLDTEXTSTYLE0
 73
     1
 44
1.0
  0
MTEXT
  5
69
330
63
100
AcDbEntity
  8
FORMAT
 62
     0
100
AcDbMText
 10
0.0
 20
-0.1434998849
 30
0.0
 40
0.1041666667
 41
0.0
 71
     1
 72
     1
  1
adhesive 2nd surface, 
  7
SLDTEXTSTYLE0
 73
     1
 44
1.0
  0
ENDBLK
  5
65
330
63
100
AcDbEntity
  8
0
100
AcDbBlockEnd
  0
BLOCK
  5
6C
330
6B
100
AcDbEntity
  8
0
100
AcDbBlockBegin
  2
SW_NOTE_1
 70
     0
 10
0.0
 20
0.0
 30
0.0
  3
SW_NOTE_1
  1

  0
MTEXT
  5
6E
330
6B
100
AcDbEntity
  8
FORMAT
 62
     0
100
AcDbMText
 10
0.0
 20
0.1342778896
 30
0.0
 40
0.1041666667
 41
0.0
 71
     1
 72
     1
  1
1/8" black, adhesive 2nd
  7
SLDTEXTSTYLE0
 73
     1
 44
1.0
  0
MTEXT
  5
6F
330
6B
100
AcDbEntity
  8
FORMAT
 62
     0
100
AcDbMText
 10
0.0
 20
-0.0046109977
 30
0.0
 40
0.1041666667
 41
0.0
 71
     1
 72
     1
  1
surface, internal cutouts
  7
SLDTEXTSTYLE0
 73
     1
 44
1.0
  0
ENDBLK
  5
6D
330
6B
100
AcDbEntity
  8
0
100
AcDbBlockEnd
  0
BLOCK
  5
72
330
71
100
AcDbEntity
  8
0
100
AcDbBlockBegin
  2
SW_NOTE_2
 70
     0
 10
0.0
 20
0.0
 30
0.0
  3
SW_NOTE_2
  1

  0
MTEXT
  5
74
330
71
100
AcDbEntity
  8
FORMAT
 62
     0
100
AcDbMText
 10
0.0
 20
0.1342778896
 30
0.0
 40
0.1041666667
 41
0.0
 71
     1
 72
     1
  1
1/8" black, adhesive 2nd
  7
SLDTEXTSTYLE0
 73
     1
 44
1.0
  0
MTEXT
  5
75
330
71
100
AcDbEntity
  8
FORMAT
 62
     0
100
AcDbMText
 10
0.0
 20
-0.0046109977
 30
0.0
 40
0.1041666667
 41
0.0
 71
     1
 72
     1
  1
surface
  7
SLDTEXTSTYLE0
 73
     1
 44
1.0
  0
ENDBLK
  5
73
330
71
100
AcDbEntity
  8
0
100
AcDbBlockEnd
  0
ENDSEC
  0
SECTION
  2
ENTITIES
  0
INSERT
  5
6A
330
1F
100
AcDbEntity
  8
FORMAT
100
AcDbBlockReference
  2
SW_NOTE_0
 10
6.5516483187
 20
0.8650753244
 30
0.0
  0
INSERT
  5
70
330
1F
100
AcDbEntity
  8
FORMAT
100
AcDbBlockReference
  2
SW_NOTE_1
 10
4.2923270869
 20
0.8650753244
 30
0.0
  0
INSERT
  5
76
330
1F
100
AcDbEntity
  8
FORMAT
100
AcDbBlockReference
  2
SW_NOTE_2
 10
2.3708913422
 20
0.8650753244
 30
0.0
  0
ARC
  5
77
330
1F
100
AcDbEntity
  8
0
  6
Continuous
 62
     7
370
    15
100
AcDbCircle
 10
3.5864498788
 20
1.3960075912
 30
0.0
 40
0.0499999999999998
100
AcDbArc
 50
270.0
 51
0.0
  0
ARC
  5
78
330
1F
100
AcDbEntity
  8
0
  6
Continuous
 62
     7
370
    15
100
AcDbCircle
 10
2.7474498788
 20
1.3960075912
 30
0.0
 40
0.0499999999999996
100
AcDbArc
 50
180.0
 51
270.0
  0
ARC
  5
79
330
1F
100
AcDbEntity
  8
0
  6
Continuous
 62
     7
370
    15
100
AcDbCircle
 10
2.7474498788
 20
7.9460075912
 30
0.0
 40
0.0499999999999994
100
AcDbArc
 50
90.0
 51
180.0
  0
ARC
  5
7A
330
1F
100
AcDbEntity
  8
0
  6
Continuous
 62
     7
370
    15
100
AcDbCircle
 10
3.5864498788
 20
7.9460075912
 30
0.0
 40
0.0499999999999998
100
AcDbArc
 50
0.0
 51
90.0
  0
LINE
  5
7B
330
1F
100
AcDbEntity
  8
0
  6
Continuous
 62
     7
370
    15
100
AcDbLine
 10
2.7474504842
 20
1.3460080643
 30
0.0
 11
3.5864492186
 21
1.3460080643
 31
0.0
  0
LINE
  5
7C
330
1F
100
AcDbEntity
  8
0
  6
Continuous
 62
     7
370
    15
100
AcDbLine
 10
2.6974506351
 20
7.9460069139
 30
0.0
 11
2.6974506351
 21
1.3960079133
 31
0.0
  0
LINE
  5
7D
330
1F
100
AcDbEntity
  8
0
  6
Continuous
 62
     7
370
    15
100
AcDbLine
 10
3.5864492186
 20
7.9960067629
 30
0.0
 11
2.7474504842
 21
7.9960067629
 31
0.0
  0
LINE
  5
7E
330
1F
100
AcDbEntity
  8
0
  6
Continuous
 62
     7
370
    15
100
AcDbLine
 10
3.6364490677
 20
1.3960079133
 30
0.0
 11
3.6364490677
 21
7.9460069139
 31
0.0
  0
ARC
  5
7F
330
1F
100
AcDbEntity
  8
0
  6
Continuous
 62
     7
370
    15
100
AcDbCircle
 10
4.8464954289
 20
7.9679080051
 30
0.0
 40
0.0499999999999954
100
AcDbArc
 50
90.0
 51
180.0
  0
LINE
  5
80
330
1F
100
AcDbEntity
  8
0
  6
Continuous
 62
     7
370
    15
100
AcDbLine
 10
5.0339954289
 20
1.4913080051
 30
0.0
 11
5.0532417103
 21
1.4913080051
 31
0.0
  0
LINE
  5
81
330
1F
100
AcDbEntity
  8
0
  6
Continuous
 62
     7
370
    15
100
AcDbLine
 10
5.5134601839
 20
1.6789479113
 30
0.0
 11
5.5134601839
 21
1.5433445812
 31
0.0
  0
LINE
  5
82
330
1F
100
AcDbEntity
  8
0
  6
Continuous
 62
     7
370
    15
100
AcDbLine
 10
5.1619220684
 20
2.0976080051
 30
0.0
 11
5.1619220684
 21
2.2272597929
 31
0.0
  0
LINE
  5
83
330
1F
100
AcDbEntity
  8
0
  6
Continuous
 62
     7
370
    15
100
AcDbLine
 10
4.8614954289
 20
1.7314080051
 30
0.0
 11
5.0314954289
 21
1.7314080051
 31
0.0
  0
LINE
  5
84
330
1F
100
AcDbEntity
  8
0
  6
Continuous
 62
     7
370
    15
100
AcDbLine
 10
4.9978954289
 20
1.6864080051
 30
0.0
 11
4.9978954289
 21
1.5884080051
 31
0.0
  0
LINE
  5
85
330
1F
100
AcDbEntity
  8
0
  6
Continuous
 62
     7
370
    15
100
AcDbLine
 10
5.6856954289
 20
3.4686080051
 30
0.0
 11
5.3549954289
 21
3.4686080051
 31
0.0
  0
LINE
  5
86
330
1F
100
AcDbEntity
  8
0
  6
Continuous
 62
     7
370
    15
100
AcDbLine
 10
5.2660954289
 20
1.8704080051
 30
0.0
 11
5.3552954289
 21
1.8704080051
 31
0.0
  0
LINE
  5
87
330
1F
100
AcDbEntity
  8
0
  6
Continuous
 62
     7
370
    15
100
AcDbLine
 10
5.2549954289
 20
7.9179080051
 30
0.0
 11
5.2549954289
 21
3.2055199009
 31
0.0
  0
LINE
  5
88
330
1F
100
AcDbEntity
  8
0
  6
Continuous
 62
     7
370
    15
100
AcDbLine
 10
5.3422434787
 20
3.2981027907
 30
0.0
 11
5.5758884537
 21
3.2981027907
 31
0.0
  0
LINE
  5
89
330
1F
100
AcDbEntity
  8
0
  6
Continuous
 62
     7
370
    15
100
AcDbLine
 10
5.0599954289
 20
1.4979080051
 30
0.0
 11
5.0532417103
 21
1.4913080051
 31
0.0
  0
LINE
  5
8A
330
1F
100
AcDbEntity
  8
0
  6
Continuous
 62
     7
370
    15
100
AcDbLine
 10
5.0599954289
 20
1.4979080051
 30
0.0
 11
5.0599954289
 21
1.5515080051
 31
0.0
  0
LINE
  5
8B
330
1F
100
AcDbEntity
  8
0
  6
Continuous
 62
     7
370
    15
100
AcDbLine
 10
5.0599954289
 20
1.5515080051
 30
0.0
 11
4.9739954289
 21
1.5515080051
 31
0.0
  0
LINE
  5
8C
330
1F
100
AcDbEntity
  8
0
  6
Continuous
 62
     7
370
    15
100
AcDbLine
 10
4.9739954289
 20
1.5515080051
 30
0.0
 11
4.9739954289
 21
1.6679080051
 31
0.0
  0
LINE
  5
8D
330
1F
100
AcDbEntity
  8
0
  6
Continuous
 62
     7
370
    15
100
AcDbLine
 10
4.9739954289
 20
1.6679080051
 30
0.0
 11
4.8389954289
 21
1.6679080051
 31
0.0
  0
LINE
  5
8E
330
1F
100
AcDbEntity
  8
0
  6
Continuous
 62
     7
370
    15
100
AcDbLine
 10
4.8389954289
 20
1.6679080051
 30
0.0
 11
4.8389954289
 21
1.4979080051
 31
0.0
  0
LINE
  5
8F
330
1F
100
AcDbEntity
  8
0
  6
Continuous
 62
     7
370
    15
100
AcDbLine
 10
4.8389954289
 20
1.4979080051
 30
0.0
 11
4.8888954289
 21
1.4979080051
 31
0.0
  0
LINE
  5
90
330
1F
100
AcDbEntity
  8
0
  6
Continuous
 62
     7
370
    15
100
AcDbLine
 10
4.8888954289
 20
1.4979080051
 30
0.0
 11
4.8888954289
 21
1.4147858388
 31
0.0
  0
LINE
  5
91
330
1F
100
AcDbEntity
  8
0
  6
Continuous
 62
     7
370
    15
100
AcDbLine
 10
4.8888954289
 20
1.4147858388
 30
0.0
 11
5.0339954289
 21
1.4120182639
 31
0.0
  0
LINE
  5
92
330
1F
100
AcDbEntity
  8
0
  6
Continuous
 62
     7
370
    15
100
AcDbLine
 10
5.0339954289
 20
1.4120182639
 30
0.0
 11
5.0339954289
 21
1.4913080051
 31
0.0
  0
LINE
  5
93
330
1F
100
AcDbEntity
  8
0
  6
Continuous
 62
     7
370
    15
100
AcDbLine
 10
5.5134601839
 20
1.5433445812
 30
0.0
 11
5.6216381214
 21
1.5433445812
 31
0.0
  0
LINE
  5
94
330
1F
100
AcDbEntity
  8
0
  6
Continuous
 62
     7
370
    15
100
AcDbLine
 10
5.6216381214
 20
1.6789479113
 30
0.0
 11
5.6216381214
 21
1.5433445812
 31
0.0
  0
LINE
  5
95
330
1F
100
AcDbEntity
  8
0
  6
Continuous
 62
     7
370
    15
100
AcDbLine
 10
5.5134601839
 20
1.6789479113
 30
0.0
 11
5.6216381214
 21
1.6789479113
 31
0.0
  0
LINE
  5
96
330
1F
100
AcDbEntity
  8
0
  6
Continuous
 62
     7
370
    15
100
AcDbLine
 10
5.2839954289
 20
2.0976080051
 30
0.0
 11
5.1619220684
 21
2.0976080051
 31
0.0
  0
LINE
  5
97
330
1F
100
AcDbEntity
  8
0
  6
Continuous
 62
     7
370
    15
100
AcDbLine
 10
5.2839954289
 20
2.0363080051
 30
0.0
 11
5.2839954289
 21
2.0976080051
 31
0.0
  0
LINE
  5
98
330
1F
100
AcDbEntity
  8
0
  6
Continuous
 62
     7
370
    15
100
AcDbLine
 10
5.4049954289
 20
2.0363080051
 30
0.0
 11
5.2839954289
 21
2.0363080051
 31
0.0
  0
LINE
  5
99
330
1F
100
AcDbEntity
  8
0
  6
Continuous
 62
     7
370
    15
100
AcDbLine
 10
5.4049954289
 20
2.0976080051
 30
0.0
 11
5.4049954289
 21
2.0363080051
 31
0.0
  0
LINE
  5
9A
330
1F
100
AcDbEntity
  8
0
  6
Continuous
 62
     7
370
    15
100
AcDbLine
 10
5.5346305068
 20
2.0976080051
 30
0.0
 11
5.4049954289
 21
2.0976080051
 31
0.0
  0
LINE
  5
9B
330
1F
100
AcDbEntity
  8
0
  6
Continuous
 62
     7
370
    15
100
AcDbLine
 10
5.5336305068
 20
2.0440080051
 30
0.0
 11
5.5346305068
 21
2.0976080051
 31
0.0
  0
LINE
  5
9C
330
1F
100
AcDbEntity
  8
0
  6
Continuous
 62
     7
370
    15
100
AcDbLine
 10
5.6547625512
 20
2.0440080051
 30
0.0
 11
5.5336305068
 21
2.0440080051
 31
0.0
  0
LINE
  5
9D
330
1F
100
AcDbEntity
  8
0
  6
Continuous
 62
     7
370
    15
100
AcDbLine
 10
5.6596346442
 20
2.3792080051
 30
0.0
 11
5.6547625512
 21
2.0440080051
 31
0.0
  0
LINE
  5
9E
330
1F
100
AcDbEntity
  8
0
  6
Continuous
 62
     7
370
    15
100
AcDbLine
 10
5.4928954289
 20
2.3792080051
 30
0.0
 11
5.6596346442
 21
2.3792080051
 31
0.0
  0
LINE
  5
9F
330
1F
100
AcDbEntity
  8
0
  6
Continuous
 62
     7
370
    15
100
AcDbLine
 10
5.4928954289
 20
2.3557080051
 30
0.0
 11
5.4928954289
 21
2.3792080051
 31
0.0
  0
LINE
  5
A0
330
1F
100
AcDbEntity
  8
0
  6
Continuous
 62
     7
370
    15
100
AcDbLine
 10
5.2224954289
 20
2.3557080051
 30
0.0
 11
5.4928954289
 21
2.3557080051
 31
0.0
  0
LINE
  5
A1
330
1F
100
AcDbEntity
  8
0
  6
Continuous
 62
     7
370
    15
100
AcDbLine
 10
5.2224954289
 20
2.2275597929
 30
0.0
 11
5.2224954289
 21
2.3557080051
 31
0.0
  0
LINE
  5
A2
330
1F
100
AcDbEntity
  8
0
  6
Continuous
 62
     7
370
    15
100
AcDbLine
 10
5.1619220684
 20
2.2272597929
 30
0.0
 11
5.2224954289
 21
2.2275597929
 31
0.0
  0
LINE
  5
A3
330
1F
100
AcDbEntity
  8
0
  6
Continuous
 62
     7
370
    15
100
AcDbLine
 10
5.0314954289
 20
1.8464080051
 30
0.0
 11
5.0314954289
 21
1.7314080051
 31
0.0
  0
LINE
  5
A4
330
1F
100
AcDbEntity
  8
0
  6
Continuous
 62
     7
370
    15
100
AcDbLine
 10
4.8614954289
 20
1.8464080051
 30
0.0
 11
5.0314954289
 21
1.8464080051
 31
0.0
  0
LINE
  5
A5
330
1F
100
AcDbEntity
  8
0
  6
Continuous
 62
     7
370
    15
100
AcDbLine
 10
4.8614954289
 20
1.8464080051
 30
0.0
 11
4.8614954289
 21
1.7314080051
 31
0.0
  0
LINE
  5
A6
330
1F
100
AcDbEntity
  8
0
  6
Continuous
 62
     7
370
    15
100
AcDbLine
 10
4.9978954289
 20
1.5884080051
 30
0.0
 11
5.1200954289
 21
1.5884080051
 31
0.0
  0
LINE
  5
A7
330
1F
100
AcDbEntity
  8
0
  6
Continuous
 62
     7
370
    15
100
AcDbLine
 10
5.1200954289
 20
1.5884080051
 30
0.0
 11
5.1200954289
 21
1.6864080051
 31
0.0
  0
LINE
  5
A8
330
1F
100
AcDbEntity
  8
0
  6
Continuous
 62
     7
370
    15
100
AcDbLine
 10
5.1200954289
 20
1.6864080051
 30
0.0
 11
4.9978954289
 21
1.6864080051
 31
0.0
  0
LINE
  5
A9
330
1F
100
AcDbEntity
  8
0
  6
Continuous
 62
     7
370
    15
100
AcDbLine
 10
5.6856954289
 20
7.6964080051
 30
0.0
 11
5.6856954289
 21
3.4686080051
 31
0.0
  0
LINE
  5
AA
330
1F
100
AcDbEntity
  8
0
  6
Continuous
 62
     7
370
    15
100
AcDbLine
 10
5.3549954289
 20
7.6964080051
 30
0.0
 11
5.6856954289
 21
7.6964080051
 31
0.0
  0
LINE
  5
AB
330
1F
100
AcDbEntity
  8
0
  6
Continuous
 62
     7
370
    15
100
AcDbLine
 10
5.3549954289
 20
7.6964080051
 30
0.0
 11
5.3549954289
 21
3.4686080051
 31
0.0
  0
LINE
  5
AC
330
1F
100
AcDbEntity
  8
0
  6
Continuous
 62
     7
370
    15
100
AcDbLine
 10
5.2660954289
 20
1.8504080051
 30
0.0
 11
5.2660954289
 21
1.8704080051
 31
0.0
  0
LINE
  5
AD
330
1F
100
AcDbEntity
  8
0
  6
Continuous
 62
     7
370
    15
100
AcDbLine
 10
5.1798236275
 20
1.8504080051
 30
0.0
 11
5.2660954289
 21
1.8504080051
 31
0.0
  0
LINE
  5
AE
330
1F
100
AcDbEntity
  8
0
  6
Continuous
 62
     7
370
    15
100
AcDbLine
 10
5.1798236275
 20
1.7294080051
 30
0.0
 11
5.1798236275
 21
1.8504080051
 31
0.0
  0
LINE
  5
AF
330
1F
100
AcDbEntity
  8
0
  6
Continuous
 62
     7
370
    15
100
AcDbLine
 10
5.3260954289
 20
1.7294080051
 30
0.0
 11
5.1798236275
 21
1.7294080051
 31
0.0
  0
LINE
  5
B0
330
1F
100
AcDbEntity
  8
0
  6
Continuous
 62
     7
370
    15
100
AcDbLine
 10
5.3260954289
 20
1.7448080051
 30
0.0
 11
5.3260954289
 21
1.7294080051
 31
0.0
  0
LINE
  5
B1
330
1F
100
AcDbEntity
  8
0
  6
Continuous
 62
     7
370
    15
100
AcDbLine
 10
5.6856954289
 20
1.7448080051
 30
0.0
 11
5.3260954289
 21
1.7448080051
 31
0.0
  0
LINE
  5
B2
330
1F
100
AcDbEntity
  8
0
  6
Continuous
 62
     7
370
    15
100
AcDbLine
 10
5.6856954289
 20
1.9990080051
 30
0.0
 11
5.6856954289
 21
1.7448080051
 31
0.0
  0
LINE
  5
B3
330
1F
100
AcDbEntity
  8
0
  6
Continuous
 62
     7
370
    15
100
AcDbLine
 10
5.3552954289
 20
1.9990080051
 30
0.0
 11
5.6856954289
 21
1.9990080051
 31
0.0
  0
LINE
  5
B4
330
1F
100
AcDbEntity
  8
0
  6
Continuous
 62
     7
370
    15
100
AcDbLine
 10
5.3552954289
 20
1.8704080051
 30
0.0
 11
5.3552954289
 21
1.9990080051
 31
0.0
  0
LINE
  5
B5
330
1F
100
AcDbEntity
  8
0
  6
Continuous
 62
     7
370
    15
100
AcDbLine
 10
4.8964954289
 20
7.9179080051
 30
0.0
 11
5.2549954289
 21
7.9179080051
 31
0.0
  0
LINE
  5
B6
330
1F
100
AcDbEntity
  8
0
  6
Continuous
 62
     7
370
    15
100
AcDbLine
 10
4.8964954289
 20
3.2055199009
 30
0.0
 11
4.8964954289
 21
7.9179080051
 31
0.0
  0
LINE
  5
B7
330
1F
100
AcDbEntity
  8
0
  6
Continuous
 62
     7
370
    15
100
AcDbLine
 10
4.8964954289
 20
3.2055199009
 30
0.0
 11
5.2549954289
 21
3.2055199009
 31
0.0
  0
LINE
  5
B8
330
1F
100
AcDbEntity
  8
0
  6
Continuous
 62
     7
370
    15
100
AcDbLine
 10
5.3422434787
 20
3.1055199009
 30
0.0
 11
5.3422434787
 21
3.2981027907
 31
0.0
  0
LINE
  5
B9
330
1F
100
AcDbEntity
  8
0
  6
Continuous
 62
     7
370
    15
100
AcDbLine
 10
4.9594578826
 20
3.1055199009
 30
0.0
 11
5.3422434787
 21
3.1055199009
 31
0.0
  0
LINE
  5
BA
330
1F
100
AcDbEntity
  8
0
  6
Continuous
 62
     7
370
    15
100
AcDbLine
 10
4.9589954289
 20
2.9245463355
 30
0.0
 11
4.9594578826
 21
3.1055199009
 31
0.0
  0
LINE
  5
BB
330
1F
100
AcDbEntity
  8
0
  6
Continuous
 62
     7
370
    15
100
AcDbLine
 10
4.9589954289
 20
2.7956080051
 30
0.0
 11
4.9589954289
 21
2.9245463355
 31
0.0
  0
LINE
  5
BC
330
1F
100
AcDbEntity
  8
0
  6
Continuous
 62
     7
370
    15
100
AcDbLine
 10
4.9310954289
 20
2.7956080051
 30
0.0
 11
4.9589954289
 21
2.7956080051
 31
0.0
  0
LINE
  5
BD
330
1F
100
AcDbEntity
  8
0
  6
Continuous
 62
     7
370
    15
100
AcDbLine
 10
4.9310954289
 20
2.7346080051
 30
0.0
 11
4.9310954289
 21
2.7956080051
 31
0.0
  0
LINE
  5
BE
330
1F
100
AcDbEntity
  8
0
  6
Continuous
 62
     7
370
    15
100
AcDbLine
 10
4.9058954289
 20
2.7346080051
 30
0.0
 11
4.9310954289
 21
2.7346080051
 31
0.0
  0
LINE
  5
BF
330
1F
100
AcDbEntity
  8
0
  6
Continuous
 62
     7
370
    15
100
AcDbLine
 10
4.9058954289
 20
2.6736080051
 30
0.0
 11
4.9058954289
 21
2.7346080051
 31
0.0
  0
LINE
  5
C0
330
1F
100
AcDbEntity
  8
0
  6
Continuous
 62
     7
370
    15
100
AcDbLine
 10
4.8781954289
 20
2.6736080051
 30
0.0
 11
4.9058954289
 21
2.6736080051
 31
0.0
  0
LINE
  5
C1
330
1F
100
AcDbEntity
  8
0
  6
Continuous
 62
     7
370
    15
100
AcDbLine
 10
4.8781954289
 20
2.5309080051
 30
0.0
 11
4.8781954289
 21
2.6736080051
 31
0.0
  0
LINE
  5
C2
330
1F
100
AcDbEntity
  8
0
  6
Continuous
 62
     7
370
    15
100
AcDbLine
 10
4.9078954289
 20
2.5309080051
 30
0.0
 11
4.8781954289
 21
2.5309080051
 31
0.0
  0
LINE
  5
C3
330
1F
100
AcDbEntity
  8
0
  6
Continuous
 62
     7
370
    15
100
AcDbLine
 10
4.9078954289
 20
2.4434080051
 30
0.0
 11
4.9078954289
 21
2.5309080051
 31
0.0
  0
LINE
  5
C4
330
1F
100
AcDbEntity
  8
0
  6
Continuous
 62
     7
370
    15
100
AcDbLine
 10
4.9838954289
 20
2.4434080051
 30
0.0
 11
4.9078954289
 21
2.4434080051
 31
0.0
  0
LINE
  5
C5
330
1F
100
AcDbEntity
  8
0
  6
Continuous
 62
     7
370
    15
100
AcDbLine
 10
4.9838954289
 20
2.3824080051
 30
0.0
 11
4.9838954289
 21
2.4434080051
 31
0.0
  0
LINE
  5
C6
330
1F
100
AcDbEntity
  8
0
  6
Continuous
 62
     7
370
    15
100
AcDbLine
 10
5.0956954289
 20
2.3824080051
 30
0.0
 11
4.9838954289
 21
2.3824080051
 31
0.0
  0
LINE
  5
C7
330
1F
100
AcDbEntity
  8
0
  6
Continuous
 62
     7
370
    15
100
AcDbLine
 10
5.0956954289
 20
2.3972080051
 30
0.0
 11
5.0956954289
 21
2.3824080051
 31
0.0
  0
LINE
  5
C8
330
1F
100
AcDbEntity
  8
0
  6
Continuous
 62
     7
370
    15
100
AcDbLine
 10
5.0956954289
 20
2.3972080051
 30
0.0
 11
5.3611954289
 21
2.3972080051
 31
0.0
  0
LINE
  5
C9
330
1F
100
AcDbEntity
  8
0
  6
Continuous
 62
     7
370
    15
100
AcDbLine
 10
5.3611954289
 20
2.3972080051
 30
0.0
 11
5.3611954289
 21
2.4434080051
 31
0.0
  0
LINE
  5
CA
330
1F
100
AcDbEntity
  8
0
  6
Continuous
 62
     7
370
    15
100
AcDbLine
 10
5.3611954289
 20
2.4434080051
 30
0.0
 11
5.4449954289
 21
2.4434080051
 31
0.0
  0
LINE
  5
CB
330
1F
100
AcDbEntity
  8
0
  6
Continuous
 62
     7
370
    15
100
AcDbLine
 10
5.4449954289
 20
2.4434080051
 30
0.0
 11
5.4449954289
 21
2.4753080051
 31
0.0
  0
LINE
  5
CC
330
1F
100
AcDbEntity
  8
0
  6
Continuous
 62
     7
370
    15
100
AcDbLine
 10
5.5059954289
 20
2.4753080051
 30
0.0
 11
5.4449954289
 21
2.4753080051
 31
0.0
  0
LINE
  5
CD
330
1F
100
AcDbEntity
  8
0
  6
Continuous
 62
     7
370
    15
100
AcDbLine
 10
5.5059954289
 20
2.8005080051
 30
0.0
 11
5.5059954289
 21
2.4753080051
 31
0.0
  0
LINE
  5
CE
330
1F
100
AcDbEntity
  8
0
  6
Continuous
 62
     7
370
    15
100
AcDbLine
 10
5.4169954289
 20
2.8005080051
 30
0.0
 11
5.5059954289
 21
2.8005080051
 31
0.0
  0
LINE
  5
CF
330
1F
100
AcDbEntity
  8
0
  6
Continuous
 62
     7
370
    15
100
AcDbLine
 10
5.4169954289
 20
2.8875080051
 30
0.0
 11
5.4169954289
 21
2.8005080051
 31
0.0
  0
LINE
  5
D0
330
1F
100
AcDbEntity
  8
0
  6
Continuous
 62
     7
370
    15
100
AcDbLine
 10
5.4053466616
 20
2.8875080051
 30
0.0
 11
5.4169954289
 21
2.8875080051
 31
0.0
  0
LINE
  5
D1
330
1F
100
AcDbEntity
  8
0
  6
Continuous
 62
     7
370
    15
100
AcDbLine
 10
5.4050091976
 20
3.0949359022
 30
0.0
 11
5.4053466616
 21
2.8875080051
 31
0.0
  0
LINE
  5
D2
330
1F
100
AcDbEntity
  8
0
  6
Continuous
 62
     7
370
    15
100
AcDbLine
 10
5.4050091976
 20
3.0949359022
 30
0.0
 11
5.5758884537
 21
3.0949359022
 31
0.0
  0
LINE
  5
D3
330
1F
100
AcDbEntity
  8
0
  6
Continuous
 62
     7
370
    15
100
AcDbLine
 10
5.5758884537
 20
3.0949359022
 30
0.0
 11
5.5758884537
 21
3.2981027907
 31
0.0
  0
LINE
  5
D4
330
1F
100
AcDbEntity
  8
0
  6
Continuous
 62
     7
370
    15
100
AcDbLine
 10
4.8464954289
 20
8.0179080051
 30
0.0
 11
5.6864954289
 21
8.0179080051
 31
0.0
  0
ARC
  5
D5
330
1F
100
AcDbEntity
  8
0
  6
Continuous
 62
     7
370
    15
100
AcDbCircle
 10
5.6864954289
 20
7.9679080051
 30
0.0
 40
0.0499999999999954
100
AcDbArc
 50
0.0
 51
90.0
  0
LINE
  5
D6
330
1F
100
AcDbEntity
  8
0
  6
Continuous
 62
     7
370
    15
100
AcDbLine
 10
5.7364954289
 20
7.9679080051
 30
0.0
 11
5.7364954289
 21
1.4179080051
 31
0.0
  0
ARC
  5
D7
330
1F
100
AcDbEntity
  8
0
  6
Continuous
 62
     7
370
    15
100
AcDbCircle
 10
5.6864954289
 20
1.4179080051
 30
0.0
 40
0.0499999999999998
100
AcDbArc
 50
270.0
 51
0.0
  0
LINE
  5
D8
330
1F
100
AcDbEntity
  8
0
  6
Continuous
 62
     7
370
    15
100
AcDbLine
 10
5.6864954289
 20
1.3679080051
 30
0.0
 11
5.4893954289
 21
1.3679080051
 31
0.0
  0
LINE
  5
D9
330
1F
100
AcDbEntity
  8
0
  6
Continuous
 62
     7
370
    15
100
AcDbLine
 10
5.4893954289
 20
1.3679080051
 30
0.0
 11
5.4893954289
 21
1.4863080051
 31
0.0
  0
LINE
  5
DA
330
1F
100
AcDbEntity
  8
0
  6
Continuous
 62
     7
370
    15
100
AcDbLine
 10
5.4893954289
 20
1.4863080051
 30
0.0
 11
5.4597954289
 21
1.4863080051
 31
0.0
  0
LINE
  5
DB
330
1F
100
AcDbEntity
  8
0
  6
Continuous
 62
     7
370
    15
100
AcDbLine
 10
5.4597954289
 20
1.581629964
 30
0.0
 11
5.4597954289
 21
1.4863080051
 31
0.0
  0
LINE
  5
DC
330
1F
100
AcDbEntity
  8
0
  6
Continuous
 62
     7
370
    15
100
AcDbLine
 10
5.1532604988
 20
1.581629964
 30
0.0
 11
5.4597954289
 21
1.581629964
 31
0.0
  0
LINE
  5
DD
330
1F
100
AcDbEntity
  8
0
  6
Continuous
 62
     7
370
    15
100
AcDbLine
 10
5.1532604988
 20
1.5698080051
 30
0.0
 11
5.1532604988
 21
1.581629964
 31
0.0
  0
LINE
  5
DE
330
1F
100
AcDbEntity
  8
0
  6
Continuous
 62
     7
370
    15
100
AcDbLine
 10
5.0881954289
 20
1.5698080051
 30
0.0
 11
5.1532604988
 21
1.5698080051
 31
0.0
  0
LINE
  5
DF
330
1F
100
AcDbEntity
  8
0
  6
Continuous
 62
     7
370
    15
100
AcDbLine
 10
5.0881954289
 20
1.4753080051
 30
0.0
 11
5.0881954289
 21
1.5698080051
 31
0.0
  0
LINE
  5
E0
330
1F
100
AcDbEntity
  8
0
  6
Continuous
 62
     7
370
    15
100
AcDbLine
 10
5.0651618618
 20
1.4753080051
 30
0.0
 11
5.0881954289
 21
1.4753080051
 31
0.0
  0
LINE
  5
E1
330
1F
100
AcDbEntity
  8
0
  6
Continuous
 62
     7
370
    15
100
AcDbLine
 10
5.0585954289
 20
1.4678080051
 30
0.0
 11
5.0651618618
 21
1.4753080051
 31
0.0
  0
LINE
  5
E2
330
1F
100
AcDbEntity
  8
0
  6
Continuous
 62
     7
370
    15
100
AcDbLine
 10
5.0585954289
 20
1.3679080051
 30
0.0
 11
5.0585954289
 21
1.4678080051
 31
0.0
  0
LINE
  5
E3
330
1F
100
AcDbEntity
  8
0
  6
Continuous
 62
     7
370
    15
100
AcDbLine
 10
5.0585954289
 20
1.3679080051
 30
0.0
 11
4.8464954289
 21
1.3679080051
 31
0.0
  0
ARC
  5
E4
330
1F
100
AcDbEntity
  8
0
  6
Continuous
 62
     7
370
    15
100
AcDbCircle
 10
4.8464954289
 20
1.4179080051
 30
0.0
 40
0.0499999999999998
100
AcDbArc
 50
180.0
 51
270.0
  0
LINE
  5
E5
330
1F
100
AcDbEntity
  8
0
  6
Continuous
 62
     7
370
    15
100
AcDbLine
 10
4.7964954289
 20
1.4179080051
 30
0.0
 11
4.7964954289
 21
7.9679080051
 31
0.0
  0
LINE
  5
E6
330
1F
100
AcDbEntity
  8
0
  6
Continuous
 62
     7
370
    15
100
AcDbLine
 10
7.4494914937
 20
3.6624884363
 30
0.0
 11
7.8480635293
 21
3.6624884363
 31
0.0
  0
LINE
  5
E7
330
1F
100
AcDbEntity
  8
0
  6
Continuous
 62
     7
370
    15
100
AcDbLine
 10
7.8480635293
 20
3.6224876184
 30
0.0
 11
7.8480635293
 21
3.6624884363
 31
0.0
  0
LINE
  5
E8
330
1F
100
AcDbEntity
  8
0
  6
Continuous
 62
     7
370
    15
100
AcDbLine
 10
7.4494914937
 20
3.6224876184
 30
0.0
 11
7.8480635293
 21
3.6224876184
 31
0.0
  0
LINE
  5
E9
330
1F
100
AcDbEntity
  8
0
  6
Continuous
 62
     7
370
    15
100
AcDbLine
 10
7.4494914937
 20
3.6224876184
 30
0.0
 11
7.4494914937
 21
3.6624884363
 31
0.0
  0
LINE
  5
EA
330
1F
100
AcDbEntity
  8
0
  6
Continuous
 62
     7
370
    15
100
AcDbLine
 10
7.4494914937
 20
3.7834882118
 30
0.0
 11
7.8480635293
 21
3.7834882118
 31
0.0
  0
LINE
  5
EB
330
1F
100
AcDbEntity
  8
0
  6
Continuous
 62
     7
370
    15
100
AcDbLine
 10
7.8480635293
 20
3.7434873939
 30
0.0
 11
7.8480635293
 21
3.7834882118
 31
0.0
  0
LINE
  5
EC
330
1F
100
AcDbEntity
  8
0
  6
Continuous
 62
     7
370
    15
100
AcDbLine
 10
7.4494914937
 20
3.7434873939
 30
0.0
 11
7.8480635293
 21
3.7434873939
 31
0.0
  0
LINE
  5
ED
330
1F
100
AcDbEntity
  8
0
  6
Continuous
 62
     7
370
    15
100
AcDbLine
 10
7.4494914937
 20
3.7434873939
 30
0.0
 11
7.4494914937
 21
3.7834882118
 31
0.0
  0
ARC
  5
EE
330
1F
100
AcDbEntity
  8
0
  6
Continuous
 62
     7
370
    15
100
AcDbCircle
 10
7.8298388666
 20
1.5490982061
 30
0.0
 40
0.0499999999999998
100
AcDbArc
 50
0.0
 51
90.0
  0
ARC
  5
EF
330
1F
100
AcDbEntity
  8
0
  6
Continuous
 62
     7
370
    15
100
AcDbCircle
 10
7.8298388666
 20
1.3734992478
 30
0.0
 40
0.0300000000000011
100
AcDbArc
 50
270.0
 51
0.0
  0
LINE
  5
F0
330
1F
100
AcDbEntity
  8
0
  6
Continuous
 62
     7
370
    15
100
AcDbLine
 10
7.8598389666
 20
1.5490978104
 30
0.0
 11
7.8598389666
 21
1.3734987722
 31
0.0
  0
ARC
  5
F1
330
1F
100
AcDbEntity
  8
0
  6
Continuous
 62
     7
370
    15
100
AcDbCircle
 10
7.8298388666
 20
1.5490982061
 30
0.0
 40
0.0300000000000011
100
AcDbArc
 50
0.0
 51
90.0
  0
LINE
  5
F2
330
1F
100
AcDbEntity
  8
0
  6
Continuous
 62
     7
370
    15
100
AcDbLine
 10
7.1063682041
 20
1.5790984238
 30
0.0
 11
7.8298395265
 21
1.5790984238
 31
0.0
  0
ARC
  5
F3
330
1F
100
AcDbEntity
  8
0
  6
Continuous
 62
     7
370
    15
100
AcDbCircle
 10
7.106368142
 20
1.5490982061
 30
0.0
 40
0.0300000000000011
100
AcDbArc
 50
90.0
 51
180.0
  0
LINE
  5
F4
330
1F
100
AcDbEntity
  8
0
  6
Continuous
 62
     7
370
    15
100
AcDbLine
 10
7.076368764
 20
1.5490978104
 30
0.0
 11
7.076368764
 21
1.3734987722
 31
0.0
  0
ARC
  5
F5
330
1F
100
AcDbEntity
  8
0
  6
Continuous
 62
     7
370
    15
100
AcDbCircle
 10
7.106368142
 20
1.3734992478
 30
0.0
 40
0.0300000000000011
100
AcDbArc
 50
180.0
 51
270.0
  0
LINE
  5
F6
330
1F
100
AcDbEntity
  8
0
  6
Continuous
 62
     7
370
    15
100
AcDbLine
 10
7.1063682041
 20
1.3434993321
 30
0.0
 11
7.8298395265
 21
1.3434993321
 31
0.0
  0
LINE
  5
F7
330
1F
100
AcDbEntity
  8
0
  6
Continuous
 62
     7
370
    15
100
AcDbLine
 10
7.8798393756
 20
1.5490978104
 30
0.0
 11
7.8798393756
 21
1.3734987722
 31
0.0
  0
ARC
  5
F8
330
1F
100
AcDbEntity
  8
0
  6
Continuous
 62
     7
370
    15
100
AcDbCircle
 10
7.8298388666
 20
1.3734992478
 30
0.0
 40
0.0499999999999998
100
AcDbArc
 50
270.0
 51
0.0
  0
LINE
  5
F9
330
1F
100
AcDbEntity
  8
0
  6
Continuous
 62
     7
370
    15
100
AcDbLine
 10
7.1063682041
 20
1.3234989232
 30
0.0
 11
7.8298395265
 21
1.3234989232
 31
0.0
  0
ARC
  5
FA
330
1F
100
AcDbEntity
  8
0
  6
Continuous
 62
     7
370
    15
100
AcDbCircle
 10
7.106368142
 20
1.3734992478
 30
0.0
 40
0.0499999999999998
100
AcDbArc
 50
180.0
 51
270.0
  0
LINE
  5
FB
330
1F
100
AcDbEntity
  8
0
  6
Continuous
 62
     7
370
    15
100
AcDbLine
 10
7.0563683551
 20
1.5490978104
 30
0.0
 11
7.0563683551
 21
1.3734987722
 31
0.0
  0
ARC
  5
FC
330
1F
100
AcDbEntity
  8
0
  6
Continuous
 62
     7
370
    15
100
AcDbCircle
 10
7.106368142
 20
1.5490982061
 30
0.0
 40
0.0499999999999998
100
AcDbArc
 50
90.0
 51
180.0
  0
LINE
  5
FD
330
1F
100
AcDbEntity
  8
0
  6
Continuous
 62
     7
370
    15
100
AcDbLine
 10
7.1063682041
 20
1.5990976594
 30
0.0
 11
7.8298395265
 21
1.5990976594
 31
0.0
  0
LINE
  5
FE
330
1F
100
AcDbEntity
  8
0
  6
Continuous
 62
     7
370
    15
100
AcDbLine
 10
7.7711125249
 20
1.4278011849
 30
0.0
 11
7.7636830641
 21
1.3834989767
 31
0.0
  0
LINE
  5
FF
330
1F
100
AcDbEntity
  8
0
  6
Continuous
 62
     7
370
    15
100
AcDbLine
 10
7.7636830641
 20
1.3834989767
 30
0.0
 11
7.7382243715
 21
1.3834989767
 31
0.0
  0
LINE
  5
100
330
1F
100
AcDbEntity
  8
0
  6
Continuous
 62
     7
370
    15
100
AcDbLine
 10
7.7382243715
 20
1.3834989767
 30
0.0
 11
7.7573706037
 21
1.4980372802
 31
0.0
  0
LINE
  5
101
330
1F
100
AcDbEntity
  8
0
  6
Continuous
 62
     7
370
    15
100
AcDbLine
 10
7.7573706037
 20
1.4980372802
 30
0.0
 11
7.7810740099
 21
1.4980372802
 31
0.0
  0
LINE
  5
102
330
1F
100
AcDbEntity
  8
0
  6
Continuous
 62
     7
370
    15
100
AcDbLine
 10
7.7810740099
 20
1.4980372802
 30
0.0
 11
7.775805804
 21
1.4664984446
 31
0.0
  0
SPLINE
  5
103
330
1F
100
AcDbEntity
  8
0
  6
Continuous
 62
     7
370
    15
100
AcDbSpline
210
0.0
220
0.0
230
1.0
 70
     8
 71
     3
 72
    10
 73
     6
 74
     0
 42
0.00000001
 43
0.00000001
 40
0.0
 40
0.0
 40
0.0
 40
0.0
 40
0.559022782703034
 40
0.7795942087683424
 40
0.9999999999999999
 40
0.9999999999999999
 40
0.9999999999999999
 40
0.9999999999999999
 10
7.775805804047221
 20
1.46649844455887
 30
0.0
 10
7.780825688267798
 20
1.475933687915216
 30
0.0
 10
7.787826248509953
 20
1.489091758223837
 30
0.0
 10
7.804360408346575
 20
1.499081170930185
 30
0.0
 10
7.812632103444537
 20
1.499893452512409
 30
0.0
 10
7.816766397533621
 20
1.500299440753547
 30
0.0
  0
SPLINE
  5
104
330
1F
100
AcDbEntity
  8
0
  6
Continuous
 62
     7
370
    15
100
AcDbSpline
210
0.0
220
0.0
230
1.0
 70
     8
 71
     3
 72
     9
 73
     5
 74
     0
 42
0.00000001
 43
0.00000001
 40
0.0
 40
0.0
 40
0.0
 40
0.0
 40
0.4174935644206
 40
0.9997657962333774
 40
0.9997657962333774
 40
0.9997657962333774
 40
0.9997657962333774
 10
7.816766057294187
 20
1.500299767951953
 30
0.0
 10
7.817193806952383
 20
1.500289530644501
 30
0.0
 10
7.818218132867946
 20
1.500265015512516
 30
0.0
 10
7.819241897703839
 20
1.500222980205946
 30
0.0
 10
7.819838147107041
 20
1.500198496091073
 30
0.0
  0
LINE
  5
105
330
1F
100
AcDbEntity
  8
0
  6
Continuous
 62
     7
370
    15
100
AcDbLine
 10
7.8198381487
 20
1.5001985353
 30
0.0
 11
7.8165645865
 21
1.4729822097
 31
0.0
  0
SPLINE
  5
106
330
1F
100
AcDbEntity
  8
0
  6
Continuous
 62
     7
370
    15
100
AcDbSpline
210
0.0
220
0.0
230
1.0
 70
     8
 71
     3
 72
     9
 73
     5
 74
     0
 42
0.00000001
 43
0.00000001
 40
0.0
 40
0.0
 40
0.0
 40
0.0
 40
0.560373357086688
 40
1.0
 40
1.0
 40
1.0
 40
1.0
 10
7.81656458653162
 20
1.472982209657862
 30
0.0
 10
7.815489864904679
 20
1.472748575360291
 30
0.0
 10
7.813571997801701
 20
1.472331649225929
 30
0.0
 10
7.811616390637713
 20
1.472173911965431
 30
0.0
 10
7.810756653625357
 20
1.472104566463138
 30
0.0
  0
SPLINE
  5
107
330
1F
100
AcDbEntity
  8
0
  6
Continuous
 62
     7
370
    15
100
AcDbSpline
210
0.0
220
0.0
230
1.0
 70
     8
 71
     3
 72
    11
 73
     7
 74
     0
 42
0.00000001
 43
0.00000001
 40
0.0
 40
0.0
 40
0.0
 40
0.0
 40
0.2792321518601019
 40
0.5579761161039587
 40
0.7786252005989005
 40
1.0
 40
1.0
 40
1.0
 40
1.0
 10
7.810756653625357
 20
1.472104566463138
 30
0.0
 10
7.804614008654437
 20
1.471234284849769
 30
0.0
 10
7.792339458031785
 20
1.469495243155226
 30
0.0
 10
7.778831660570651
 20
1.457184558642407
 30
0.0
 10
7.773731262835819
 20
1.442048480277629
 30
0.0
 10
7.771986392475482
 20
1.432555478580775
 30
0.0
 10
7.771112524931048
 20
1.427801184926249
 30
0.0
  0
LINE
  5
108
330
1F
100
AcDbEntity
  8
0
  6
Continuous
 62
     7
370
    15
100
AcDbLine
 10
7.6943609849
 20
1.4223992207
 30
0.0
 11
7.7171538949
 21
1.4180767106
 31
0.0
  0
LINE
  5
109
330
1F
100
AcDbEntity
  8
0
  6
Continuous
 62
     7
370
    15
100
AcDbLine
 10
7.6493829445
 20
1.4548156995
 30
0.0
 11
7.6977025996
 21
1.4548156995
 31
0.0
  0
SPLINE
  5
10A
330
1F
100
AcDbEntity
  8
0
  6
Continuous
 62
     7
370
    15
100
AcDbSpline
210
0.0
220
0.0
230
1.0
 70
     8
 71
     3
 72
    11
 73
     7
 74
     0
 42
0.00000001
 43
0.00000001
 40
0.0
 40
0.0
 40
0.0
 40
0.0
 40
0.4987197233151214
 40
0.6243505679370667
 40
0.7500395661665007
 40
1.0
 40
1.0
 40
1.0
 40
1.0
 10
7.697702599635436
 20
1.454815699518938
 30
0.0
 10
7.697325050786721
 20
1.461628631201424
 30
0.0
 10
7.69685239484972
 20
1.470157786088255
 30
0.0
 10
7.690857561292525
 20
1.478197884548027
 30
0.0
 10
7.685366651556095
 20
1.482141301986262
 30
0.0
 10
7.680324878947642
 20
1.482602669986101
 30
0.0
 10
7.676970039139744
 20
1.482909668308346
 30
0.0
  0
SPLINE
  5
10B
330
1F
100
AcDbEntity
  8
0
  6
Continuous
 62
     7
370
    15
100
AcDbSpline
210
0.0
220
0.0
230
1.0
 70
     8
 71
     3
 72
    10
 73
     6
 74
     0
 42
0.00000001
 43
0.00000001
 40
0.0
 40
0.0
 40
0.0
 40
0.0
 40
0.2797116726385527
 40
0.5592319962582877
 40
1.0
 40
1.0
 40
1.0
 40
1.0
 10
7.676970039139744
 20
1.482909668308346
 30
0.0
 10
7.672910862867911
 20
1.482458611005172
 30
0.0
 10
7.664795287181539
 20
1.481556804964323
 30
0.0
 10
7.653861821352649
 20
1.470972925588019
 30
0.0
 10
7.65108324581422
 20
1.460949414214507
 30
0.0
 10
7.649382944494882
 20
1.454815699518938
 30
0.0
  0
SPLINE
  5
10C
330
1F
100
AcDbEntity
  8
0
  6
Continuous
 62
     7
370
    15
100
AcDbSpline
210
0.0
220
0.0
230
1.0
 70
     8
 71
     3
 72
    11
 73
     7
 74
     0
 42
0.00000001
 43
0.00000001
 40
0.0
 40
0.0
 40
0.0
 40
0.0
 40
0.2803641876869308
 40
0.5599774444452953
 40
0.7798667030914195
 40
1.0
 40
1.0
 40
1.0
 40
1.0
 10
7.717153894932413
 20
1.418076710597539
 30
0.0
 10
7.714466568848858
 20
1.412537400350526
 30
0.0
 10
7.709099114449365
 20
1.401473616413997
 30
0.0
 10
7.696742018360389
 20
1.389149838906902
 30
0.0
 10
7.682184754711846
 20
1.382305129908742
 30
0.0
 10
7.672519629281902
 20
1.381660310293517
 30
0.0
 10
7.667684386408397
 20
1.381337721676141
 30
0.0
  0
SPLINE
  5
10D
330
1F
100
AcDbEntity
  8
0
  6
Continuous
 62
     7
370
    15
100
AcDbSpline
210
0.0
220
0.0
230
1.0
 70
     8
 71
     3
 72
    11
 73
     7
 74
     0
 42
0.00000001
 43
0.00000001
 40
0.0
 40
0.0
 40
0.0
 40
0.0
 40
0.2800474632684942
 40
0.5587612191982937
 40
0.7790739826911848
 40
1.0
 40
1.0
 40
1.0
 40
1.0
 10
7.667684386408397
 20
1.381337721676141
 30
0.0
 10
7.660312646566194
 20
1.381958917489392
 30
0.0
 10
7.645604274300418
 20
1.38319835071233
 30
0.0
 10
7.629124100704074
 20
1.396914301028169
 30
0.0
 10
7.620933706178588
 20
1.414158887336746
 30
0.0
 10
7.620247858711052
 20
1.425657641844606
 30
0.0
 10
7.619904458366207
 20
1.431415009845704
 30
0.0
  0
SPLINE
  5
10E
330
1F
100
AcDbEntity
  8
0
  6
Continuous
 62
     7
370
    15
100
AcDbSpline
210
0.0
220
0.0
230
1.0
 70
     8
 71
     3
 72
    11
 73
     7
 74
     0
 42
0.00000001
 43
0.00000001
 40
0.0
 40
0.0
 40
0.0
 40
0.0
 40
0.2804412866209101
 40
0.5603253642135747
 40
0.7801219903573708
 40
1.0
 40
1.0
 40
1.0
 40
1.0
 10
7.619904458366203
 20
1.431415009845702
 30
0.0
 10
7.62066325072928
 20
1.440796428811808
 30
0.0
 10
7.622179327810247
 20
1.459540626794794
 30
0.0
 10
7.635845123808617
 20
1.482482135368309
 30
0.0
 10
7.655316135556358
 20
1.497925323192672
 30
0.0
 10
7.670110976505603
 20
1.499440704400551
 30
0.0
 10
7.677509766238108
 20
1.500198535252549
 30
0.0
  0
SPLINE
  5
10F
330
1F
100
AcDbEntity
  8
0
  6
Continuous
 62
     7
370
    15
100
AcDbSpline
210
0.0
220
0.0
230
1.0
 70
     8
 71
     3
 72
    11
 73
     7
 74
     0
 42
0.00000001
 43
0.00000001
 40
0.0
 40
0.0
 40
0.0
 40
0.0
 40
0.2798890664149801
 40
0.5579804700388364
 40
0.7786953077751165
 40
1.0
 40
1.0
 40
1.0
 40
1.0
 10
7.677509766238104
 20
1.500198535252547
 30
0.0
 10
7.685134712339001
 20
1.499549872951218
 30
0.0
 10
7.700335631274107
 20
1.498256714556611
 30
0.0
 10
7.71616214031669
 20
1.482489849487541
 30
0.0
 10
7.722772572721023
 20
1.464192182133943
 30
0.0
 10
7.723347477440383
 20
1.45238569192168
 30
0.0
 10
7.723635313391847
 20
1.44647456920972
 30
0.0
  0
SPLINE
  5
110
330
1F
100
AcDbEntity
  8
0
  6
Continuous
 62
     7
370
    15
100
AcDbSpline
210
0.0
220
0.0
230
1.0
 70
     8
 71
     3
 72
     9
 73
     5
 74
     0
 42
0.00000001
 43
0.00000001
 40
0.0
 40
0.0
 40
0.0
 40
0.0
 40
0.5598990057387644
 40
1.0
 40
1.0
 40
1.0
 40
1.0
 10
7.723635313391847
 20
1.44647456920972
 30
0.0
 10
7.723623960205797
 20
1.444802572095715
 30
0.0
 10
7.723603683002345
 20
1.441816324403067
 30
0.0
 10
7.723392629007863
 20
1.43883771953756
 30
0.0
 10
7.723299743935041
 20
1.437526832574737
 30
0.0
  0
LINE
  5
111
330
1F
100
AcDbEntity
  8
0
  6
Continuous
 62
     7
370
    15
100
AcDbLine
 10
7.7232997439
 20
1.4375268326
 30
0.0
 11
7.6466139098
 21
1.4375268326
 31
0.0
  0
SPLINE
  5
112
330
1F
100
AcDbEntity
  8
0
  6
Continuous
 62
     7
370
    15
100
AcDbSpline
210
0.0
220
0.0
230
1.0
 70
     8
 71
     3
 72
     9
 73
     5
 74
     0
 42
0.00000001
 43
0.00000001
 40
0.0
 40
0.0
 40
0.0
 40
0.0
 40
0.5600435163346206
 40
0.9999999999999999
 40
0.9999999999999999
 40
0.9999999999999999
 40
0.9999999999999999
 10
7.646613909816341
 20
1.437526832574737
 30
0.0
 10
7.646382341804597
 20
1.436053535306513
 30
0.0
 10
7.645968859628662
 20
1.433422851752013
 30
0.0
 10
7.645877407208022
 20
1.430762229096815
 30
0.0
 10
7.645837172122614
 20
1.429591670909069
 30
0.0
  0
SPLINE
  5
113
330
1F
100
AcDbEntity
  8
0
  6
Continuous
 62
     7
370
    15
100
AcDbSpline
210
0.0
220
0.0
230
1.0
 70
     8
 71
     3
 72
    19
 73
    15
 74
     0
 42
0.00000001
 43
0.00000001
 40
0.0
 40
0.0
 40
0.0
 40
0.0
 40
0.1441496893537188
 40
0.2765392856335226
 40
0.4006154793795627
 40
0.5198319773658218
 40
0.5782897055009134
 40
0.6350688703841365
 40
0.6926714236337376
 40
0.749768681565394
 40
0.80874461835463
 40
0.8690326417888613
 40
0.9327102362156839
 40
0.9999882324976898
 40
0.9999882324976898
 40
0.9999882324976898
 40
0.9999882324976898
 10
7.645836819645896
 20
1.429591387146832
 30
0.0
 10
7.645900948328929
 20
1.427682999467458
 30
0.0
 10
7.646023973916245
 20
1.424021915160364
 30
0.0
 10
7.647156833028686
 20
1.418816921063759
 30
0.0
 10
7.649001065246728
 20
1.414173502342835
 30
0.0
 10
7.651220771002484
 20
1.410826027409403
 30
0.0
 10
7.653274042173405
 20
1.408491302621223
 30
0.0
 10
7.655046388813883
 20
1.407038874057268
 30
0.0
 10
7.656910050042242
 20
1.405737291697624
 30
0.0
 10
7.658981691796403
 20
1.404731831039535
 30
0.0
 10
7.661166698875942
 20
1.403898167247242
 30
0.0
 10
7.66353771475145
 20
1.403395737037249
 30
0.0
 10
7.666037509332181
 20
1.402980161025306
 30
0.0
 10
7.667771897984567
 20
1.402959648939226
 30
0.0
 10
7.668662935392654
 20
1.402949123111628
 30
0.0
  0
SPLINE
  5
114
330
1F
100
AcDbEntity
  8
0
  6
Continuous
 62
     7
370
    15
100
AcDbSpline
210
0.0
220
0.0
230
1.0
 70
     8
 71
     3
 72
    10
 73
     6
 74
     0
 42
0.00000001
 43
0.00000001
 40
0.0
 40
0.0
 40
0.0
 40
0.0
 40
0.2800983340257995
 40
0.5600186657790177
 40
1.0
 40
1.0
 40
1.0
 40
1.0
 10
7.668662935104119
 20
1.402949098686336
 30
0.0
 10
7.671870160434237
 20
1.403268352420813
 30
0.0
 10
7.678282572905285
 20
1.403906657004265
 30
0.0
 10
7.688054638279259
 20
1.410647119968442
 30
0.0
 10
7.691968782586159
 20
1.417941266763998
 30
0.0
 10
7.694360984904721
 20
1.422399220663534
 30
0.0
  0
LINE
  5
115
330
1F
100
AcDbEntity
  8
0
  6
Continuous
 62
     7
370
    15
100
AcDbLine
 10
7.6004531631
 20
1.4051103537
 30
0.0
 11
7.5969073907
 21
1.3834989767
 31
0.0
  0
LINE
  5
116
330
1F
100
AcDbEntity
  8
0
  6
Continuous
 62
     7
370
    15
100
AcDbLine
 10
7.5969073907
 20
1.3834989767
 30
0.0
 11
7.5802603297
 21
1.3834989767
 31
0.0
  0
SPLINE
  5
117
330
1F
100
AcDbEntity
  8
0
  6
Continuous
 62
     7
370
    15
100
AcDbSpline
210
0.0
220
0.0
230
1.0
 70
     8
 71
     3
 72
    11
 73
     7
 74
     0
 42
0.00000001
 43
0.00000001
 40
0.0
 40
0.0
 40
0.0
 40
0.0
 40
0.2811409127692676
 40
0.5602341316908654
 40
0.7801787766436046
 40
1.0
 40
1.0
 40
1.0
 40
1.0
 10
7.580260329671893
 20
1.383498976709139
 30
0.0
 10
7.576053758072539
 20
1.383659589495619
 30
0.0
 10
7.567671253498069
 20
1.383979645243062
 30
0.0
 10
7.556669776067082
 20
1.388923946147446
 30
0.0
 10
7.549768091084246
 20
1.397796784970161
 30
0.0
 10
7.549003017794865
 20
1.404406500235255
 30
0.0
 10
7.548620588510217
 20
1.407710430349693
 30
0.0
  0
SPLINE
  5
118
330
1F
100
AcDbEntity
  8
0
  6
Continuous
 62
     7
370
    15
100
AcDbSpline
210
0.0
220
0.0
230
1.0
 70
     8
 71
     3
 72
     9
 73
     5
 74
     0
 42
0.00000001
 43
0.00000001
 40
0.0
 40
0.0
 40
0.0
 40
0.0
 40
0.5598542188197485
 40
1.0
 40
1.0
 40
1.0
 40
1.0
 10
7.548620588510217
 20
1.407710430349693
 30
0.0
 10
7.548929203708832
 20
1.411380855599488
 30
0.0
 10
7.549480445779072
 20
1.417936893093548
 30
0.0
 10
7.550641555186312
 20
1.424411629787705
 30
0.0
 10
7.551152612593397
 20
1.427261457827891
 30
0.0
  0
LINE
  5
119
330
1F
100
AcDbEntity
  8
0
  6
Continuous
 62
     7
370
    15
100
AcDbLine
 10
7.5511526126
 20
1.4272614578
 30
0.0
 11
7.5597976327
 21
1.4764259032
 31
0.0
  0
LINE
  5
11A
330
1F
100
AcDbEntity
  8
0
  6
Continuous
 62
     7
370
    15
100
AcDbLine
 10
7.5597976327
 20
1.4764259032
 30
0.0
 11
7.5421039705
 21
1.4764259032
 31
0.0
  0
LINE
  5
11B
330
1F
100
AcDbEntity
  8
0
  6
Continuous
 62
     7
370
    15
100
AcDbLine
 10
7.5421039705
 20
1.4764259032
 30
0.0
 11
7.5456497428
 21
1.4980372802
 31
0.0
  0
LINE
  5
11C
330
1F
100
AcDbEntity
  8
0
  6
Continuous
 62
     7
370
    15
100
AcDbLine
 10
7.5456497428
 20
1.4980372802
 30
0.0
 11
7.5635804157
 21
1.4980372802
 31
0.0
  0
LINE
  5
11D
330
1F
100
AcDbEntity
  8
0
  6
Continuous
 62
     7
370
    15
100
AcDbLine
 10
7.5635804157
 20
1.4980372802
 30
0.0
 11
7.569353149
 21
1.5309266069
 31
0.0
  0
LINE
  5
11E
330
1F
100
AcDbEntity
  8
0
  6
Continuous
 62
     7
370
    15
100
AcDbLine
 10
7.569353149
 20
1.5309266069
 30
0.0
 11
7.5947461357
 21
1.5326818933
 31
0.0
  0
LINE
  5
11F
330
1F
100
AcDbEntity
  8
0
  6
Continuous
 62
     7
370
    15
100
AcDbLine
 10
7.5947461357
 20
1.5326818933
 30
0.0
 11
7.5887363918
 21
1.4980372802
 31
0.0
  0
LINE
  5
120
330
1F
100
AcDbEntity
  8
0
  6
Continuous
 62
     7
370
    15
100
AcDbLine
 10
7.5887363918
 20
1.4980372802
 30
0.0
 11
7.6134206933
 21
1.4980372802
 31
0.0
  0
LINE
  5
121
330
1F
100
AcDbEntity
  8
0
  6
Continuous
 62
     7
370
    15
100
AcDbLine
 10
7.6134206933
 20
1.4980372802
 30
0.0
 11
7.610011026
 21
1.4764259032
 31
0.0
  0
LINE
  5
122
330
1F
100
AcDbEntity
  8
0
  6
Continuous
 62
     7
370
    15
100
AcDbLine
 10
7.610011026
 20
1.4764259032
 30
0.0
 11
7.5849888084
 21
1.4764259032
 31
0.0
  0
LINE
  5
123
330
1F
100
AcDbEntity
  8
0
  6
Continuous
 62
     7
370
    15
100
AcDbLine
 10
7.5849888084
 20
1.4764259032
 30
0.0
 11
7.5764118408
 21
1.4268895155
 31
0.0
  0
SPLINE
  5
124
330
1F
100
AcDbEntity
  8
0
  6
Continuous
 62
     7
370
    15
100
AcDbSpline
210
0.0
220
0.0
230
1.0
 70
     8
 71
     3
 72
     9
 73
     5
 74
     0
 42
0.00000001
 43
0.00000001
 40
0.0
 40
0.0
 40
0.0
 40
0.0
 40
0.5600668676099043
 40
1.0
 40
1.0
 40
1.0
 40
1.0
 10
7.576411840796633
 20
1.426889515457932
 30
0.0
 10
7.576031850211773
 20
1.424790242640181
 30
0.0
 10
7.575353376610084
 20
1.421041988745594
 30
0.0
 10
7.57503241847898
 20
1.417247056082057
 30
0.0
 10
7.574891218362993
 20
1.415577539468178
 30
0.0
  0
SPLINE
  5
125
330
1F
100
AcDbEntity
  8
0
  6
Continuous
 62
     7
370
    15
100
AcDbSpline
210
0.0
220
0.0
230
1.0
 70
     8
 71
     3
 72
    12
 73
     8
 74
     0
 42
0.00000001
 43
0.00000001
 40
0.0
 40
0.0
 40
0.0
 40
0.0
 40
0.125370170404468
 40
0.2505616383607562
 40
0.3758361697098468
 40
0.5012852531856341
 40
1.0
 40
1.0
 40
1.0
 40
1.0
 10
7.574891218362993
 20
1.415577539468178
 30
0.0
 10
7.574949415681488
 20
1.414638897634866
 30
0.0
 10
7.575065727364091
 20
1.412762951906855
 30
0.0
 10
7.576260902749056
 20
1.410138632724763
 30
0.0
 10
7.578308277259788
 20
1.408155126281804
 30
0.0
 10
7.58326816220553
 20
1.405439907163887
 30
0.0
 10
7.588034766098652
 20
1.405256721426416
 30
0.0
 10
7.591843342530607
 20
1.405110353719334
 30
0.0
  0
LINE
  5
126
330
1F
100
AcDbEntity
  8
0
  6
Continuous
 62
     7
370
    15
100
AcDbLine
 10
7.5918433425
 20
1.4051103537
 30
0.0
 11
7.6004531631
 21
1.4051103537
 31
0.0
  0
LINE
  5
127
330
1F
100
AcDbEntity
  8
0
  6
Continuous
 62
     7
370
    15
100
AcDbLine
 10
7.4977008567
 20
1.4223992207
 30
0.0
 11
7.5204937668
 21
1.4180767106
 31
0.0
  0
LINE
  5
128
330
1F
100
AcDbEntity
  8
0
  6
Continuous
 62
     7
370
    15
100
AcDbLine
 10
7.4527228163
 20
1.4548156995
 30
0.0
 11
7.5010424715
 21
1.4548156995
 31
0.0
  0
SPLINE
  5
129
330
1F
100
AcDbEntity
  8
0
  6
Continuous
 62
     7
370
    15
100
AcDbSpline
210
0.0
220
0.0
230
1.0
 70
     8
 71
     3
 72
    11
 73
     7
 74
     0
 42
0.00000001
 43
0.00000001
 40
0.0
 40
0.0
 40
0.0
 40
0.0
 40
0.4987197233151214
 40
0.6243505679370667
 40
0.7500395661665007
 40
1.0
 40
1.0
 40
1.0
 40
1.0
 10
7.501042471470019
 20
1.454815699518938
 30
0.0
 10
7.500664922621298
 20
1.461628631201424
 30
0.0
 10
7.500192266684302
 20
1.470157786088255
 30
0.0
 10
7.494197433127107
 20
1.478197884548027
 30
0.0
 10
7.488706523390681
 20
1.482141301986262
 30
0.0
 10
7.483664750782225
 20
1.482602669986101
 30
0.0
 10
7.480309910974326
 20
1.482909668308346
 30
0.0
  0
SPLINE
  5
12A
330
1F
100
AcDbEntity
  8
0
  6
Continuous
 62
     7
370
    15
100
AcDbSpline
210
0.0
220
0.0
230
1.0
 70
     8
 71
     3
 72
    23
 73
    19
 74
     0
 42
0.00000001
 43
0.00000001
 40
0.0000095682596086
 40
0.0000095682596086
 40
0.0000095682596086
 40
0.0000095682596086
 40
0.0611247130477199
 40
0.1195986892701837
 40
0.1765909954211619
 40
0.2320620691943382
 40
0.2863713163351952
 40
0.3411639213707154
 40
0.3959789044365351
 40
0.4525012408917699
 40
0.5107071913660229
 40
0.570697804272557
 40
0.6332847413102232
 40
0.6994808941754794
 40
0.7685777751724471
 40
0.8419026811607195
 40
0.9187075550295731
 40
1.0
 40
1.0
 40
1.0
 40
1.0
 10
7.4803099106677
 20
1.482909686399826
 30
0.0
 10
7.479430725763502
 20
1.482894785266642
 30
0.0
 10
7.477710352311854
 20
1.482865609642796
 30
0.0
 10
7.475193453652357
 20
1.482502676820951
 30
0.0
 10
7.472788084099784
 20
1.481984455340853
 30
0.0
 10
7.470519703851208
 20
1.481193623932235
 30
0.0
 10
7.46836317023669
 20
1.48021175902244
 30
0.0
 10
7.466342689429984
 20
1.478990747375702
 30
0.0
 10
7.464425522584015
 20
1.477559313099663
 30
0.0
 10
7.462646828427867
 20
1.4758892321518
 30
0.0
 10
7.460935482061827
 20
1.474044643805747
 30
0.0
 10
7.459433162091001
 20
1.471918128656825
 30
0.0
 10
7.45800116018667
 20
1.469612150329281
 30
0.0
 10
7.456690322991747
 20
1.467084144245084
 30
0.0
 10
7.455510119677531
 20
1.46432537805402
 30
0.0
 10
7.454433227034468
 20
1.461362539367736
 30
0.0
 10
7.45347829322065
 20
1.45817321353723
 30
0.0
 10
7.452979202789427
 20
1.455955677356284
 30
0.0
 10
7.45272257426648
 20
1.454815437032899
 30
0.0
  0
SPLINE
  5
12B
330
1F
100
AcDbEntity
  8
0
  6
Continuous
 62
     7
370
    15
100
AcDbSpline
210
0.0
220
0.0
230
1.0
 70
     8
 71
     3
 72
    11
 73
     7
 74
     0
 42
0.00000001
 43
0.00000001
 40
0.0
 40
0.0
 40
0.0
 40
0.0
 40
0.2803641876869308
 40
0.5599774444452953
 40
0.7798667030914195
 40
1.0
 40
1.0
 40
1.0
 40
1.0
 10
7.520493766766995
 20
1.418076710597539
 30
0.0
 10
7.517806440683436
 20
1.412537400350526
 30
0.0
 10
7.512438986283946
 20
1.401473616413997
 30
0.0
 10
7.500081890194971
 20
1.389149838906902
 30
0.0
 10
7.485524626546429
 20
1.382305129908742
 30
0.0
 10
7.475859501116489
 20
1.381660310293517
 30
0.0
 10
7.471024258242979
 20
1.381337721676141
 30
0.0
  0
SPLINE
  5
12C
330
1F
100
AcDbEntity
  8
0
  6
Continuous
 62
     7
370
    15
100
AcDbSpline
210
0.0
220
0.0
230
1.0
 70
     8
 71
     3
 72
    11
 73
     7
 74
     0
 42
0.00000001
 43
0.00000001
 40
0.0
 40
0.0
 40
0.0
 40
0.0
 40
0.2800504043470859
 40
0.5587435522974997
 40
0.7790716625102687
 40
1.0
 40
1.0
 40
1.0
 40
1.0
 10
7.471024258242979
 20
1.381337721676141
 30
0.0
 10
7.463652310890022
 20
1.381958710899269
 30
0.0
 10
7.448944144119325
 20
1.383197679738745
 30
0.0
 10
7.432466901016457
 20
1.396915805454484
 30
0.0
 10
7.424272961578914
 20
1.414158198119244
 30
0.0
 10
7.423587518122558
 20
1.425657525212475
 30
0.0
 10
7.423244330200785
 20
1.431415009845702
 30
0.0
  0
SPLINE
  5
12D
330
1F
100
AcDbEntity
  8
0
  6
Continuous
 62
     7
370
    15
100
AcDbSpline
210
0.0
220
0.0
230
1.0
 70
     8
 71
     3
 72
    11
 73
     7
 74
     0
 42
0.00000001
 43
0.00000001
 40
0.0
 40
0.0
 40
0.0
 40
0.0
 40
0.2804412866209101
 40
0.5603253642135747
 40
0.7801219903573708
 40
1.0
 40
1.0
 40
1.0
 40
1.0
 10
7.423244330200785
 20
1.431415009845702
 30
0.0
 10
7.424003122563857
 20
1.440796428811808
 30
0.0
 10
7.425519199644825
 20
1.459540626794794
 30
0.0
 10
7.439184995643204
 20
1.482482135368309
 30
0.0
 10
7.458656007390936
 20
1.497925323192672
 30
0.0
 10
7.473450848340185
 20
1.499440704400551
 30
0.0
 10
7.480849638072691
 20
1.500198535252549
 30
0.0
  0
SPLINE
  5
12E
330
1F
100
AcDbEntity
  8
0
  6
Continuous
 62
     7
370
    15
100
AcDbSpline
210
0.0
220
0.0
230
1.0
 70
     8
 71
     3
 72
    11
 73
     7
 74
     0
 42
0.00000001
 43
0.00000001
 40
0.0
 40
0.0
 40
0.0
 40
0.0
 40
0.2798882579079036
 40
0.5579788582175375
 40
0.7786930583815447
 40
1.0
 40
1.0
 40
1.0
 40
1.0
 10
7.480849638072686
 20
1.500198535252547
 30
0.0
 10
7.48847456444475
 20
1.499549870989449
 30
0.0
 10
7.503675444048911
 20
1.498256708683913
 30
0.0
 10
7.519502226477401
 20
1.482489870799385
 30
0.0
 10
7.526111849174616
 20
1.464192046894626
 30
0.0
 10
7.526688713114557
 20
1.452385672474843
 30
0.0
 10
7.526977531865987
 20
1.44647456920972
 30
0.0
  0
SPLINE
  5
12F
330
1F
100
AcDbEntity
  8
0
  6
Continuous
 62
     7
370
    15
100
AcDbSpline
210
0.0
220
0.0
230
1.0
 70
     8
 71
     3
 72
     9
 73
     5
 74
     0
 42
0.00000001
 43
0.00000001
 40
0.0
 40
0.0
 40
0.0
 40
0.0
 40
0.5599011912597928
 40
1.0
 40
1.0
 40
1.0
 40
1.0
 10
7.526977531865987
 20
1.44647456920972
 30
0.0
 10
7.526965177818023
 20
1.444802576235094
 30
0.0
 10
7.526943113124906
 20
1.441816347592042
 30
0.0
 10
7.526732365533529
 20
1.438837722103797
 30
0.0
 10
7.526639615769623
 20
1.437526832574737
 30
0.0
  0
LINE
  5
130
330
1F
100
AcDbEntity
  8
0
  6
Continuous
 62
     7
370
    15
100
AcDbLine
 10
7.5266396158
 20
1.4375268326
 30
0.0
 11
7.4499537817
 21
1.4375268326
 31
0.0
  0
SPLINE
  5
131
330
1F
100
AcDbEntity
  8
0
  6
Continuous
 62
     7
370
    15
100
AcDbSpline
210
0.0
220
0.0
230
1.0
 70
     8
 71
     3
 72
     9
 73
     5
 74
     0
 42
0.00000001
 43
0.00000001
 40
0.0
 40
0.0
 40
0.0
 40
0.0
 40
0.533826125244266
 40
1.0
 40
1.0
 40
1.0
 40
1.0
 10
7.44995366919197
 20
1.437526663884752
 30
0.0
 10
7.449731890775547
 20
1.436122594440719
 30
0.0
 10
7.449316440114866
 20
1.433492394498013
 30
0.0
 10
7.449221352464239
 20
1.430831722787549
 30
0.0
 10
7.449177025085704
 20
1.429591387146829
 30
0.0
  0
SPLINE
  5
132
330
1F
100
AcDbEntity
  8
0
  6
Continuous
 62
     7
370
    15
100
AcDbSpline
210
0.0
220
0.0
230
1.0
 70
     8
 71
     3
 72
    19
 73
    15
 74
     0
 42
0.00000001
 43
0.00000001
 40
0.0
 40
0.0
 40
0.0
 40
0.0
 40
0.1441496893537188
 40
0.2765392856335226
 40
0.4006154793795627
 40
0.5198319773658218
 40
0.5782897055009134
 40
0.6350688703841365
 40
0.6926714236337376
 40
0.749768681565394
 40
0.80874461835463
 40
0.8690326417888613
 40
0.9327102362156839
 40
0.9999798373545218
 40
0.9999798373545218
 40
0.9999798373545218
 40
0.9999798373545218
 10
7.449177025085708
 20
1.429591387146832
 30
0.0
 10
7.449241153768746
 20
1.427682999467461
 30
0.0
 10
7.449364179356071
 20
1.424021915160367
 30
0.0
 10
7.45049703846849
 20
1.418816921063759
 30
0.0
 10
7.452341270686545
 20
1.414173502342833
 30
0.0
 10
7.454560976442287
 20
1.410826027409406
 30
0.0
 10
7.456614247613226
 20
1.40849130262122
 30
0.0
 10
7.458386594253695
 20
1.407038874057272
 30
0.0
 10
7.460250255482059
 20
1.405737291697622
 30
0.0
 10
7.462321897236207
 20
1.404731831039535
 30
0.0
 10
7.464506904315763
 20
1.40389816724724
 30
0.0
 10
7.466877920191258
 20
1.403395737037253
 30
0.0
 10
7.469377605036911
 20
1.40298017926811
 30
0.0
 10
7.471111881052281
 20
1.402959651570236
 30
0.0
 10
7.472002807273787
 20
1.40294912705196
 30
0.0
  0
SPLINE
  5
133
330
1F
100
AcDbEntity
  8
0
  6
Continuous
 62
     7
370
    15
100
AcDbSpline
210
0.0
220
0.0
230
1.0
 70
     8
 71
     3
 72
    10
 73
     6
 74
     0
 42
0.00000001
 43
0.00000001
 40
0.0
 40
0.0
 40
0.0
 40
0.0
 40
0.2800983340257995
 40
0.5600186657790177
 40
1.0
 40
1.0
 40
1.0
 40
1.0
 10
7.472002806938701
 20
1.402949098686336
 30
0.0
 10
7.475210032268819
 20
1.403268352420813
 30
0.0
 10
7.481622444739867
 20
1.403906657004265
 30
0.0
 10
7.491394510113841
 20
1.410647119968442
 30
0.0
 10
7.495308654420741
 20
1.417941266763998
 30
0.0
 10
7.497700856739304
 20
1.422399220663534
 30
0.0
  0
LINE
  5
134
330
1F
100
AcDbEntity
  8
0
  6
Continuous
 62
     7
370
    15
100
AcDbLine
 10
7.3879227116
 20
1.3834989767
 30
0.0
 11
7.3600329004
 21
1.3834989767
 31
0.0
  0
LINE
  5
135
330
1F
100
AcDbEntity
  8
0
  6
Continuous
 62
     7
370
    15
100
AcDbLine
 10
7.3600329004
 20
1.3834989767
 30
0.0
 11
7.3837363066
 21
1.5251867266
 31
0.0
  0
LINE
  5
136
330
1F
100
AcDbEntity
  8
0
  6
Continuous
 62
     7
370
    15
100
AcDbLine
 10
7.3837363066
 20
1.5251867266
 30
0.0
 11
7.3174859786
 21
1.3834989767
 31
0.0
  0
LINE
  5
137
330
1F
100
AcDbEntity
  8
0
  6
Continuous
 62
     7
370
    15
100
AcDbLine
 10
7.3174859786
 20
1.3834989767
 30
0.0
 11
7.3023243404
 21
1.3834989767
 31
0.0
  0
LINE
  5
138
330
1F
100
AcDbEntity
  8
0
  6
Continuous
 62
     7
370
    15
100
AcDbLine
 10
7.3023243404
 20
1.3834989767
 30
0.0
 11
7.2798341469
 21
1.523937141
 31
0.0
  0
LINE
  5
139
330
1F
100
AcDbEntity
  8
0
  6
Continuous
 62
     7
370
    15
100
AcDbLine
 10
7.2798341469
 20
1.523937141
 30
0.0
 11
7.2563677513
 21
1.3834989767
 31
0.0
  0
LINE
  5
13A
330
1F
100
AcDbEntity
  8
0
  6
Continuous
 62
     7
370
    15
100
AcDbLine
 10
7.2563677513
 20
1.3834989767
 30
0.0
 11
7.2346871484
 21
1.3834989767
 31
0.0
  0
LINE
  5
13B
330
1F
100
AcDbEntity
  8
0
  6
Continuous
 62
     7
370
    15
100
AcDbLine
 10
7.2346871484
 20
1.3834989767
 30
0.0
 11
7.2606879147
 21
1.5390987792
 31
0.0
  0
LINE
  5
13C
330
1F
100
AcDbEntity
  8
0
  6
Continuous
 62
     7
370
    15
100
AcDbLine
 10
7.2606879147
 20
1.5390987792
 30
0.0
 11
7.3036408052
 21
1.5390987792
 31
0.0
  0
LINE
  5
13D
330
1F
100
AcDbEntity
  8
0
  6
Continuous
 62
     7
370
    15
100
AcDbLine
 10
7.3036408052
 20
1.5390987792
 30
0.0
 11
7.3205929294
 21
1.4337111967
 31
0.0
  0
LINE
  5
13E
330
1F
100
AcDbEntity
  8
0
  6
Continuous
 62
     7
370
    15
100
AcDbLine
 10
7.3205929294
 20
1.4337111967
 30
0.0
 11
7.3697902277
 21
1.5390987792
 31
0.0
  0
LINE
  5
13F
330
1F
100
AcDbEntity
  8
0
  6
Continuous
 62
     7
370
    15
100
AcDbLine
 10
7.3697902277
 20
1.5390987792
 30
0.0
 11
7.4139586775
 21
1.5390987792
 31
0.0
  0
LINE
  5
140
330
1F
100
AcDbEntity
  8
0
  6
Continuous
 62
     7
370
    15
100
AcDbLine
 10
7.4139586775
 20
1.5390987792
 30
0.0
 11
7.3879227116
 21
1.3834989767
 31
0.0
  0
LINE
  5
141
330
1F
100
AcDbEntity
  8
0
  6
Continuous
 62
     7
370
    15
100
AcDbLine
 10
7.14971533
 20
1.5159796863
 30
0.0
 11
7.14567911
 21
1.5390987792
 31
0.0
  0
LINE
  5
142
330
1F
100
AcDbEntity
  8
0
  6
Continuous
 62
     7
370
    15
100
AcDbLine
 10
7.120405802
 20
1.5159796863
 30
0.0
 11
7.14971533
 21
1.5159796863
 31
0.0
  0
LINE
  5
143
330
1F
100
AcDbEntity
  8
0
  6
Continuous
 62
     7
370
    15
100
AcDbLine
 10
7.1163672353
 20
1.5390987792
 30
0.0
 11
7.120405802
 21
1.5159796863
 31
0.0
  0
LINE
  5
144
330
1F
100
AcDbEntity
  8
0
  6
Continuous
 62
     7
370
    15
100
AcDbLine
 10
7.1163672353
 20
1.5390987792
 30
0.0
 11
7.14567911
 21
1.5390987792
 31
0.0
  0
LINE
  5
145
330
1F
100
AcDbEntity
  8
0
  6
Continuous
 62
     7
370
    15
100
AcDbLine
 10
7.2336569737
 20
1.5159796863
 30
0.0
 11
7.2438718957
 21
1.5390987792
 31
0.0
  0
LINE
  5
146
330
1F
100
AcDbEntity
  8
0
  6
Continuous
 62
     7
370
    15
100
AcDbLine
 10
7.2112723789
 20
1.5159796863
 30
0.0
 11
7.2336569737
 21
1.5159796863
 31
0.0
  0
LINE
  5
147
330
1F
100
AcDbEntity
  8
0
  6
Continuous
 62
     7
370
    15
100
AcDbLine
 10
7.2214849543
 20
1.5390987792
 30
0.0
 11
7.2112723789
 21
1.5159796863
 31
0.0
  0
LINE
  5
148
330
1F
100
AcDbEntity
  8
0
  6
Continuous
 62
     7
370
    15
100
AcDbLine
 10
7.2214849543
 20
1.5390987792
 30
0.0
 11
7.2438718957
 21
1.5390987792
 31
0.0
  0
LINE
  5
149
330
1F
100
AcDbEntity
  8
0
  6
Continuous
 62
     7
370
    15
100
AcDbLine
 10
7.2190233294
 20
1.4828592156
 30
0.0
 11
7.229240598
 21
1.5059794818
 31
0.0
  0
LINE
  5
14A
330
1F
100
AcDbEntity
  8
0
  6
Continuous
 62
     7
370
    15
100
AcDbLine
 10
7.1966387346
 20
1.4828592156
 30
0.0
 11
7.2190233294
 21
1.4828592156
 31
0.0
  0
LINE
  5
14B
330
1F
100
AcDbEntity
  8
0
  6
Continuous
 62
     7
370
    15
100
AcDbLine
 10
7.2068536566
 20
1.5059794818
 30
0.0
 11
7.1966387346
 21
1.4828592156
 31
0.0
  0
LINE
  5
14C
330
1F
100
AcDbEntity
  8
0
  6
Continuous
 62
     7
370
    15
100
AcDbLine
 10
7.2068536566
 20
1.5059794818
 30
0.0
 11
7.229240598
 21
1.5059794818
 31
0.0
  0
LINE
  5
14D
330
1F
100
AcDbEntity
  8
0
  6
Continuous
 62
     7
370
    15
100
AcDbLine
 10
7.1554997965
 20
1.4828592156
 30
0.0
 11
7.1514612299
 21
1.5059794818
 31
0.0
  0
LINE
  5
14E
330
1F
100
AcDbEntity
  8
0
  6
Continuous
 62
     7
370
    15
100
AcDbLine
 10
7.1261926151
 20
1.4828592156
 30
0.0
 11
7.1554997965
 21
1.4828592156
 31
0.0
  0
LINE
  5
14F
330
1F
100
AcDbEntity
  8
0
  6
Continuous
 62
     7
370
    15
100
AcDbLine
 10
7.1221540484
 20
1.5059794818
 30
0.0
 11
7.1261926151
 21
1.4828592156
 31
0.0
  0
LINE
  5
150
330
1F
100
AcDbEntity
  8
0
  6
Continuous
 62
     7
370
    15
100
AcDbLine
 10
7.1221540484
 20
1.5059794818
 30
0.0
 11
7.1514612299
 21
1.5059794818
 31
0.0
  0
LINE
  5
151
330
1F
100
AcDbEntity
  8
0
  6
Continuous
 62
     7
370
    15
100
AcDbLine
 10
7.1612819164
 20
1.4497387448
 30
0.0
 11
7.1572456964
 21
1.4728590111
 31
0.0
  0
LINE
  5
152
330
1F
100
AcDbEntity
  8
0
  6
Continuous
 62
     7
370
    15
100
AcDbLine
 10
7.1319794283
 20
1.4497387448
 30
0.0
 11
7.1612819164
 21
1.4497387448
 31
0.0
  0
LINE
  5
153
330
1F
100
AcDbEntity
  8
0
  6
Continuous
 62
     7
370
    15
100
AcDbLine
 10
7.1279408616
 20
1.4728590111
 30
0.0
 11
7.1319794283
 21
1.4497387448
 31
0.0
  0
LINE
  5
154
330
1F
100
AcDbEntity
  8
0
  6
Continuous
 62
     7
370
    15
100
AcDbLine
 10
7.1279408616
 20
1.4728590111
 30
0.0
 11
7.1572456964
 21
1.4728590111
 31
0.0
  0
LINE
  5
155
330
1F
100
AcDbEntity
  8
0
  6
Continuous
 62
     7
370
    15
100
AcDbLine
 10
7.2043896851
 20
1.4497387448
 30
0.0
 11
7.2146069537
 21
1.4728590111
 31
0.0
  0
LINE
  5
156
330
1F
100
AcDbEntity
  8
0
  6
Continuous
 62
     7
370
    15
100
AcDbLine
 10
7.182007437
 20
1.4497387448
 30
0.0
 11
7.2043896851
 21
1.4497387448
 31
0.0
  0
LINE
  5
157
330
1F
100
AcDbEntity
  8
0
  6
Continuous
 62
     7
370
    15
100
AcDbLine
 10
7.192222359
 20
1.4728590111
 30
0.0
 11
7.182007437
 21
1.4497387448
 31
0.0
  0
LINE
  5
158
330
1F
100
AcDbEntity
  8
0
  6
Continuous
 62
     7
370
    15
100
AcDbLine
 10
7.192222359
 20
1.4728590111
 30
0.0
 11
7.2146069537
 21
1.4728590111
 31
0.0
  0
LINE
  5
159
330
1F
100
AcDbEntity
  8
0
  6
Continuous
 62
     7
370
    15
100
AcDbLine
 10
7.1775887147
 20
1.4397397137
 30
0.0
 11
7.1999709628
 21
1.4397397137
 31
0.0
  0
LINE
  5
15A
330
1F
100
AcDbEntity
  8
0
  6
Continuous
 62
     7
370
    15
100
AcDbLine
 10
7.1897560408
 20
1.4166194474
 30
0.0
 11
7.1999709628
 21
1.4397397137
 31
0.0
  0
LINE
  5
15B
330
1F
100
AcDbEntity
  8
0
  6
Continuous
 62
     7
370
    15
100
AcDbLine
 10
7.1673761393
 20
1.4166194474
 30
0.0
 11
7.1897560408
 21
1.4166194474
 31
0.0
  0
LINE
  5
15C
330
1F
100
AcDbEntity
  8
0
  6
Continuous
 62
     7
370
    15
100
AcDbLine
 10
7.1673761393
 20
1.4166194474
 30
0.0
 11
7.1775887147
 21
1.4397397137
 31
0.0
  0
LINE
  5
15D
330
1F
100
AcDbEntity
  8
0
  6
Continuous
 62
     7
370
    15
100
AcDbLine
 10
7.1377638948
 20
1.4166194474
 30
0.0
 11
7.1670663829
 21
1.4166194474
 31
0.0
  0
LINE
  5
15E
330
1F
100
AcDbEntity
  8
0
  6
Continuous
 62
     7
370
    15
100
AcDbLine
 10
7.1337253281
 20
1.4397397137
 30
0.0
 11
7.1377638948
 21
1.4166194474
 31
0.0
  0
LINE
  5
15F
330
1F
100
AcDbEntity
  8
0
  6
Continuous
 62
     7
370
    15
100
AcDbLine
 10
7.1337253281
 20
1.4397397137
 30
0.0
 11
7.1630301629
 21
1.4397397137
 31
0.0
  0
LINE
  5
160
330
1F
100
AcDbEntity
  8
0
  6
Continuous
 62
     7
370
    15
100
AcDbLine
 10
7.1630301629
 20
1.4397397137
 30
0.0
 11
7.1670663829
 21
1.4166194474
 31
0.0
  0
LINE
  5
161
330
1F
100
AcDbEntity
  8
0
  6
Continuous
 62
     7
370
    15
100
AcDbLine
 10
7.1751223965
 20
1.3834989767
 30
0.0
 11
7.1853373185
 21
1.406619243
 31
0.0
  0
LINE
  5
162
330
1F
100
AcDbEntity
  8
0
  6
Continuous
 62
     7
370
    15
100
AcDbLine
 10
7.1435507079
 20
1.3834989767
 30
0.0
 11
7.1751223965
 21
1.3834989767
 31
0.0
  0
LINE
  5
163
330
1F
100
AcDbEntity
  8
0
  6
Continuous
 62
     7
370
    15
100
AcDbLine
 10
7.1395121412
 20
1.406619243
 30
0.0
 11
7.1435507079
 21
1.3834989767
 31
0.0
  0
LINE
  5
164
330
1F
100
AcDbEntity
  8
0
  6
Continuous
 62
     7
370
    15
100
AcDbLine
 10
7.1395121412
 20
1.406619243
 30
0.0
 11
7.1853373185
 21
1.406619243
 31
0.0
  0
LINE
  5
165
330
1F
100
AcDbEntity
  8
0
  6
Continuous
 62
     7
370
    15
100
AcDbLine
 10
7.4494914937
 20
3.4204888852
 30
0.0
 11
7.8480635293
 21
3.4204888852
 31
0.0
  0
LINE
  5
166
330
1F
100
AcDbEntity
  8
0
  6
Continuous
 62
     7
370
    15
100
AcDbLine
 10
7.8480635293
 20
3.3804880673
 30
0.0
 11
7.8480635293
 21
3.4204888852
 31
0.0
  0
LINE
  5
167
330
1F
100
AcDbEntity
  8
0
  6
Continuous
 62
     7
370
    15
100
AcDbLine
 10
7.4494914937
 20
3.3804880673
 30
0.0
 11
7.8480635293
 21
3.3804880673
 31
0.0
  0
LINE
  5
168
330
1F
100
AcDbEntity
  8
0
  6
Continuous
 62
     7
370
    15
100
AcDbLine
 10
7.4494914937
 20
3.3804880673
 30
0.0
 11
7.4494914937
 21
3.4204888852
 31
0.0
  0
LINE
  5
169
330
1F
100
AcDbEntity
  8
0
  6
Continuous
 62
     7
370
    15
100
AcDbLine
 10
7.4494914937
 20
3.5414886608
 30
0.0
 11
7.8480635293
 21
3.5414886608
 31
0.0
  0
LINE
  5
16A
330
1F
100
AcDbEntity
  8
0
  6
Continuous
 62
     7
370
    15
100
AcDbLine
 10
7.8480635293
 20
3.5014878429
 30
0.0
 11
7.8480635293
 21
3.5414886608
 31
0.0
  0
LINE
  5
16B
330
1F
100
AcDbEntity
  8
0
  6
Continuous
 62
     7
370
    15
100
AcDbLine
 10
7.4494914937
 20
3.5014878429
 30
0.0
 11
7.8480635293
 21
3.5014878429
 31
0.0
  0
LINE
  5
16C
330
1F
100
AcDbEntity
  8
0
  6
Continuous
 62
     7
370
    15
100
AcDbLine
 10
7.4494914937
 20
3.5014878429
 30
0.0
 11
7.4494914937
 21
3.5414886608
 31
0.0
  0
LINE
  5
16D
330
1F
100
AcDbEntity
  8
0
  6
Continuous
 62
     7
370
    15
100
AcDbLine
 10
7.4494914937
 20
5.5984871915
 30
0.0
 11
7.8480635293
 21
5.5984871915
 31
0.0
  0
LINE
  5
16E
330
1F
100
AcDbEntity
  8
0
  6
Continuous
 62
     7
370
    15
100
AcDbLine
 10
7.8480635293
 20
5.5584887202
 30
0.0
 11
7.8480635293
 21
5.5984871915
 31
0.0
  0
LINE
  5
16F
330
1F
100
AcDbEntity
  8
0
  6
Continuous
 62
     7
370
    15
100
AcDbLine
 10
7.4494914937
 20
5.5584887202
 30
0.0
 11
7.8480635293
 21
5.5584887202
 31
0.0
  0
LINE
  5
170
330
1F
100
AcDbEntity
  8
0
  6
Continuous
 62
     7
370
    15
100
AcDbLine
 10
7.4494914937
 20
5.5584887202
 30
0.0
 11
7.4494914937
 21
5.5984871915
 31
0.0
  0
LINE
  5
171
330
1F
100
AcDbEntity
  8
0
  6
Continuous
 62
     7
370
    15
100
AcDbLine
 10
7.4494914937
 20
5.7194893136
 30
0.0
 11
7.8480635293
 21
5.7194893136
 31
0.0
  0
LINE
  5
172
330
1F
100
AcDbEntity
  8
0
  6
Continuous
 62
     7
370
    15
100
AcDbLine
 10
7.8480635293
 20
5.6794884957
 30
0.0
 11
7.8480635293
 21
5.7194893136
 31
0.0
  0
LINE
  5
173
330
1F
100
AcDbEntity
  8
0
  6
Continuous
 62
     7
370
    15
100
AcDbLine
 10
7.4494914937
 20
5.6794884957
 30
0.0
 11
7.8480635293
 21
5.6794884957
 31
0.0
  0
LINE
  5
174
330
1F
100
AcDbEntity
  8
0
  6
Continuous
 62
     7
370
    15
100
AcDbLine
 10
7.4494914937
 20
5.6794884957
 30
0.0
 11
7.4494914937
 21
5.7194893136
 31
0.0
  0
LINE
  5
175
330
1F
100
AcDbEntity
  8
0
  6
Continuous
 62
     7
370
    15
100
AcDbLine
 10
7.4494914937
 20
3.9044879874
 30
0.0
 11
7.8480635293
 21
3.9044879874
 31
0.0
  0
LINE
  5
176
330
1F
100
AcDbEntity
  8
0
  6
Continuous
 62
     7
370
    15
100
AcDbLine
 10
7.8480635293
 20
3.8644895161
 30
0.0
 11
7.8480635293
 21
3.9044879874
 31
0.0
  0
LINE
  5
177
330
1F
100
AcDbEntity
  8
0
  6
Continuous
 62
     7
370
    15
100
AcDbLine
 10
7.4494914937
 20
3.8644895161
 30
0.0
 11
7.8480635293
 21
3.8644895161
 31
0.0
  0
LINE
  5
178
330
1F
100
AcDbEntity
  8
0
  6
Continuous
 62
     7
370
    15
100
AcDbLine
 10
7.4494914937
 20
3.8644895161
 30
0.0
 11
7.4494914937
 21
3.9044879874
 31
0.0
  0
LINE
  5
179
330
1F
100
AcDbEntity
  8
0
  6
Continuous
 62
     7
370
    15
100
AcDbLine
 10
7.4494914937
 20
4.0254877629
 30
0.0
 11
7.8480635293
 21
4.0254877629
 31
0.0
  0
LINE
  5
17A
330
1F
100
AcDbEntity
  8
0
  6
Continuous
 62
     7
370
    15
100
AcDbLine
 10
7.8480635293
 20
3.9854892916
 30
0.0
 11
7.8480635293
 21
4.0254877629
 31
0.0
  0
LINE
  5
17B
330
1F
100
AcDbEntity
  8
0
  6
Continuous
 62
     7
370
    15
100
AcDbLine
 10
7.4494914937
 20
3.9854892916
 30
0.0
 11
7.8480635293
 21
3.9854892916
 31
0.0
  0
LINE
  5
17C
330
1F
100
AcDbEntity
  8
0
  6
Continuous
 62
     7
370
    15
100
AcDbLine
 10
7.4494914937
 20
3.9854892916
 30
0.0
 11
7.4494914937
 21
4.0254877629
 31
0.0
  0
LINE
  5
17D
330
1F
100
AcDbEntity
  8
0
  6
Continuous
 62
     7
370
    15
100
AcDbLine
 10
7.4494914937
 20
4.1464875384
 30
0.0
 11
7.8480635293
 21
4.1464875384
 31
0.0
  0
LINE
  5
17E
330
1F
100
AcDbEntity
  8
0
  6
Continuous
 62
     7
370
    15
100
AcDbLine
 10
7.8480635293
 20
4.1064890672
 30
0.0
 11
7.8480635293
 21
4.1464875384
 31
0.0
  0
LINE
  5
17F
330
1F
100
AcDbEntity
  8
0
  6
Continuous
 62
     7
370
    15
100
AcDbLine
 10
7.4494914937
 20
4.1064890672
 30
0.0
 11
7.8480635293
 21
4.1064890672
 31
0.0
  0
LINE
  5
180
330
1F
100
AcDbEntity
  8
0
  6
Continuous
 62
     7
370
    15
100
AcDbLine
 10
7.4494914937
 20
4.1064890672
 30
0.0
 11
7.4494914937
 21
4.1464875384
 31
0.0
  0
LINE
  5
181
330
1F
100
AcDbEntity
  8
0
  6
Continuous
 62
     7
370
    15
100
AcDbLine
 10
7.4494914937
 20
4.267487314
 30
0.0
 11
7.8480635293
 21
4.267487314
 31
0.0
  0
LINE
  5
182
330
1F
100
AcDbEntity
  8
0
  6
Continuous
 62
     7
370
    15
100
AcDbLine
 10
7.8480635293
 20
4.2274888427
 30
0.0
 11
7.8480635293
 21
4.267487314
 31
0.0
  0
LINE
  5
183
330
1F
100
AcDbEntity
  8
0
  6
Continuous
 62
     7
370
    15
100
AcDbLine
 10
7.4494914937
 20
4.2274888427
 30
0.0
 11
7.8480635293
 21
4.2274888427
 31
0.0
  0
LINE
  5
184
330
1F
100
AcDbEntity
  8
0
  6
Continuous
 62
     7
370
    15
100
AcDbLine
 10
7.4494914937
 20
4.2274888427
 30
0.0
 11
7.4494914937
 21
4.267487314
 31
0.0
  0
LINE
  5
185
330
1F
100
AcDbEntity
  8
0
  6
Continuous
 62
     7
370
    15
100
AcDbLine
 10
7.4494914937
 20
4.3884894361
 30
0.0
 11
7.8480635293
 21
4.3884894361
 31
0.0
  0
LINE
  5
186
330
1F
100
AcDbEntity
  8
0
  6
Continuous
 62
     7
370
    15
100
AcDbLine
 10
7.8480635293
 20
4.3484886182
 30
0.0
 11
7.8480635293
 21
4.3884894361
 31
0.0
  0
LINE
  5
187
330
1F
100
AcDbEntity
  8
0
  6
Continuous
 62
     7
370
    15
100
AcDbLine
 10
7.4494914937
 20
4.3484886182
 30
0.0
 11
7.4494914937
 21
4.3884894361
 31
0.0
  0
LINE
  5
188
330
1F
100
AcDbEntity
  8
0
  6
Continuous
 62
     7
370
    15
100
AcDbLine
 10
7.4494914937
 20
4.3484886182
 30
0.0
 11
7.8480635293
 21
4.3484886182
 31
0.0
  0
LINE
  5
189
330
1F
100
AcDbEntity
  8
0
  6
Continuous
 62
     7
370
    15
100
AcDbLine
 10
7.4494914937
 20
4.5094892117
 30
0.0
 11
7.8480635293
 21
4.5094892117
 31
0.0
  0
LINE
  5
18A
330
1F
100
AcDbEntity
  8
0
  6
Continuous
 62
     7
370
    15
100
AcDbLine
 10
7.8480635293
 20
4.4694883938
 30
0.0
 11
7.8480635293
 21
4.5094892117
 31
0.0
  0
LINE
  5
18B
330
1F
100
AcDbEntity
  8
0
  6
Continuous
 62
     7
370
    15
100
AcDbLine
 10
7.4494914937
 20
4.4694883938
 30
0.0
 11
7.8480635293
 21
4.4694883938
 31
0.0
  0
LINE
  5
18C
330
1F
100
AcDbEntity
  8
0
  6
Continuous
 62
     7
370
    15
100
AcDbLine
 10
7.4494914937
 20
4.4694883938
 30
0.0
 11
7.4494914937
 21
4.5094892117
 31
0.0
  0
LINE
  5
18D
330
1F
100
AcDbEntity
  8
0
  6
Continuous
 62
     7
370
    15
100
AcDbLine
 10
7.4494914937
 20
4.6304889872
 30
0.0
 11
7.8480635293
 21
4.6304889872
 31
0.0
  0
LINE
  5
18E
330
1F
100
AcDbEntity
  8
0
  6
Continuous
 62
     7
370
    15
100
AcDbLine
 10
7.8480635293
 20
4.5904881693
 30
0.0
 11
7.8480635293
 21
4.6304889872
 31
0.0
  0
LINE
  5
18F
330
1F
100
AcDbEntity
  8
0
  6
Continuous
 62
     7
370
    15
100
AcDbLine
 10
7.4494914937
 20
4.5904881693
 30
0.0
 11
7.8480635293
 21
4.5904881693
 31
0.0
  0
LINE
  5
190
330
1F
100
AcDbEntity
  8
0
  6
Continuous
 62
     7
370
    15
100
AcDbLine
 10
7.4494914937
 20
4.5904881693
 30
0.0
 11
7.4494914937
 21
4.6304889872
 31
0.0
  0
LINE
  5
191
330
1F
100
AcDbEntity
  8
0
  6
Continuous
 62
     7
370
    15
100
AcDbLine
 10
7.4494914937
 20
4.7514887627
 30
0.0
 11
7.8480635293
 21
4.7514887627
 31
0.0
  0
LINE
  5
192
330
1F
100
AcDbEntity
  8
0
  6
Continuous
 62
     7
370
    15
100
AcDbLine
 10
7.8480635293
 20
4.7114879448
 30
0.0
 11
7.8480635293
 21
4.7514887627
 31
0.0
  0
LINE
  5
193
330
1F
100
AcDbEntity
  8
0
  6
Continuous
 62
     7
370
    15
100
AcDbLine
 10
7.4494914937
 20
4.7114879448
 30
0.0
 11
7.8480635293
 21
4.7114879448
 31
0.0
  0
LINE
  5
194
330
1F
100
AcDbEntity
  8
0
  6
Continuous
 62
     7
370
    15
100
AcDbLine
 10
7.4494914937
 20
4.7114879448
 30
0.0
 11
7.4494914937
 21
4.7514887627
 31
0.0
  0
LINE
  5
195
330
1F
100
AcDbEntity
  8
0
  6
Continuous
 62
     7
370
    15
100
AcDbLine
 10
7.4494914937
 20
4.8724885383
 30
0.0
 11
7.8480635293
 21
4.8724885383
 31
0.0
  0
LINE
  5
196
330
1F
100
AcDbEntity
  8
0
  6
Continuous
 62
     7
370
    15
100
AcDbLine
 10
7.8480635293
 20
4.8324877204
 30
0.0
 11
7.8480635293
 21
4.8724885383
 31
0.0
  0
LINE
  5
197
330
1F
100
AcDbEntity
  8
0
  6
Continuous
 62
     7
370
    15
100
AcDbLine
 10
7.4494914937
 20
4.8324877204
 30
0.0
 11
7.4494914937
 21
4.8724885383
 31
0.0
  0
LINE
  5
198
330
1F
100
AcDbEntity
  8
0
  6
Continuous
 62
     7
370
    15
100
AcDbLine
 10
7.4494914937
 20
4.8324877204
 30
0.0
 11
7.8480635293
 21
4.8324877204
 31
0.0
  0
LINE
  5
199
330
1F
100
AcDbEntity
  8
0
  6
Continuous
 62
     7
370
    15
100
AcDbLine
 10
7.4494914937
 20
4.9934883138
 30
0.0
 11
7.8480635293
 21
4.9934883138
 31
0.0
  0
LINE
  5
19A
330
1F
100
AcDbEntity
  8
0
  6
Continuous
 62
     7
370
    15
100
AcDbLine
 10
7.4494914937
 20
4.9534874959
 30
0.0
 11
7.8480635293
 21
4.9534874959
 31
0.0
  0
LINE
  5
19B
330
1F
100
AcDbEntity
  8
0
  6
Continuous
 62
     7
370
    15
100
AcDbLine
 10
7.4494914937
 20
4.9534874959
 30
0.0
 11
7.4494914937
 21
4.9934883138
 31
0.0
  0
LINE
  5
19C
330
1F
100
AcDbEntity
  8
0
  6
Continuous
 62
     7
370
    15
100
AcDbLine
 10
7.8480635293
 20
4.9534874959
 30
0.0
 11
7.8480635293
 21
4.9934883138
 31
0.0
  0
LINE
  5
19D
330
1F
100
AcDbEntity
  8
0
  6
Continuous
 62
     7
370
    15
100
AcDbLine
 10
7.4494914937
 20
5.1144880893
 30
0.0
 11
7.8480635293
 21
5.1144880893
 31
0.0
  0
LINE
  5
19E
330
1F
100
AcDbEntity
  8
0
  6
Continuous
 62
     7
370
    15
100
AcDbLine
 10
7.8480635293
 20
5.0744872714
 30
0.0
 11
7.8480635293
 21
5.1144880893
 31
0.0
  0
LINE
  5
19F
330
1F
100
AcDbEntity
  8
0
  6
Continuous
 62
     7
370
    15
100
AcDbLine
 10
7.4494914937
 20
5.0744872714
 30
0.0
 11
7.8480635293
 21
5.0744872714
 31
0.0
  0
LINE
  5
1A0
330
1F
100
AcDbEntity
  8
0
  6
Continuous
 62
     7
370
    15
100
AcDbLine
 10
7.4494914937
 20
5.0744872714
 30
0.0
 11
7.4494914937
 21
5.1144880893
 31
0.0
  0
LINE
  5
1A1
330
1F
100
AcDbEntity
  8
0
  6
Continuous
 62
     7
370
    15
100
AcDbLine
 10
7.4494914937
 20
5.2354878649
 30
0.0
 11
7.8480635293
 21
5.2354878649
 31
0.0
  0
LINE
  5
1A2
330
1F
100
AcDbEntity
  8
0
  6
Continuous
 62
     7
370
    15
100
AcDbLine
 10
7.8480635293
 20
5.1954893936
 30
0.0
 11
7.8480635293
 21
5.2354878649
 31
0.0
  0
LINE
  5
1A3
330
1F
100
AcDbEntity
  8
0
  6
Continuous
 62
     7
370
    15
100
AcDbLine
 10
7.4494914937
 20
5.1954893936
 30
0.0
 11
7.8480635293
 21
5.1954893936
 31
0.0
  0
LINE
  5
1A4
330
1F
100
AcDbEntity
  8
0
  6
Continuous
 62
     7
370
    15
100
AcDbLine
 10
7.4494914937
 20
5.1954893936
 30
0.0
 11
7.4494914937
 21
5.2354878649
 31
0.0
  0
LINE
  5
1A5
330
1F
100
AcDbEntity
  8
0
  6
Continuous
 62
     7
370
    15
100
AcDbLine
 10
7.4494914937
 20
5.3564876404
 30
0.0
 11
7.8480635293
 21
5.3564876404
 31
0.0
  0
LINE
  5
1A6
330
1F
100
AcDbEntity
  8
0
  6
Continuous
 62
     7
370
    15
100
AcDbLine
 10
7.8480635293
 20
5.3164891691
 30
0.0
 11
7.8480635293
 21
5.3564876404
 31
0.0
  0
LINE
  5
1A7
330
1F
100
AcDbEntity
  8
0
  6
Continuous
 62
     7
370
    15
100
AcDbLine
 10
7.4494914937
 20
5.3164891691
 30
0.0
 11
7.8480635293
 21
5.3164891691
 31
0.0
  0
LINE
  5
1A8
330
1F
100
AcDbEntity
  8
0
  6
Continuous
 62
     7
370
    15
100
AcDbLine
 10
7.4494914937
 20
5.3164891691
 30
0.0
 11
7.4494914937
 21
5.3564876404
 31
0.0
  0
LINE
  5
1A9
330
1F
100
AcDbEntity
  8
0
  6
Continuous
 62
     7
370
    15
100
AcDbLine
 10
7.4494914937
 20
5.4774874159
 30
0.0
 11
7.8480635293
 21
5.4774874159
 31
0.0
  0
LINE
  5
1AA
330
1F
100
AcDbEntity
  8
0
  6
Continuous
 62
     7
370
    15
100
AcDbLine
 10
7.8480635293
 20
5.4374889447
 30
0.0
 11
7.8480635293
 21
5.4774874159
 31
0.0
  0
LINE
  5
1AB
330
1F
100
AcDbEntity
  8
0
  6
Continuous
 62
     7
370
    15
100
AcDbLine
 10
7.4494914937
 20
5.4374889447
 30
0.0
 11
7.8480635293
 21
5.4374889447
 31
0.0
  0
LINE
  5
1AC
330
1F
100
AcDbEntity
  8
0
  6
Continuous
 62
     7
370
    15
100
AcDbLine
 10
7.4494914937
 20
5.4374889447
 30
0.0
 11
7.4494914937
 21
5.4774874159
 31
0.0
  0
LINE
  5
1AD
330
1F
100
AcDbEntity
  8
0
  6
Continuous
 62
     7
370
    15
100
AcDbLine
 10
7.4494914937
 20
7.4134885178
 30
0.0
 11
7.8480635293
 21
7.4134885178
 31
0.0
  0
LINE
  5
1AE
330
1F
100
AcDbEntity
  8
0
  6
Continuous
 62
     7
370
    15
100
AcDbLine
 10
7.8480635293
 20
7.3734876998
 30
0.0
 11
7.8480635293
 21
7.4134885178
 31
0.0
  0
LINE
  5
1AF
330
1F
100
AcDbEntity
  8
0
  6
Continuous
 62
     7
370
    15
100
AcDbLine
 10
7.4494914937
 20
7.3734876998
 30
0.0
 11
7.8480635293
 21
7.3734876998
 31
0.0
  0
LINE
  5
1B0
330
1F
100
AcDbEntity
  8
0
  6
Continuous
 62
     7
370
    15
100
AcDbLine
 10
7.4494914937
 20
7.3734876998
 30
0.0
 11
7.4494914937
 21
7.4134885178
 31
0.0
  0
LINE
  5
1B1
330
1F
100
AcDbEntity
  8
0
  6
Continuous
 62
     7
370
    15
100
AcDbLine
 10
7.4494914937
 20
6.6874875179
 30
0.0
 11
7.8480635293
 21
6.6874875179
 31
0.0
  0
LINE
  5
1B2
330
1F
100
AcDbEntity
  8
0
  6
Continuous
 62
     7
370
    15
100
AcDbLine
 10
7.8480635293
 20
6.6474890466
 30
0.0
 11
7.8480635293
 21
6.6874875179
 31
0.0
  0
LINE
  5
1B3
330
1F
100
AcDbEntity
  8
0
  6
Continuous
 62
     7
370
    15
100
AcDbLine
 10
7.4494914937
 20
6.6474890466
 30
0.0
 11
7.8480635293
 21
6.6474890466
 31
0.0
  0
LINE
  5
1B4
330
1F
100
AcDbEntity
  8
0
  6
Continuous
 62
     7
370
    15
100
AcDbLine
 10
7.4494914937
 20
6.6474890466
 30
0.0
 11
7.4494914937
 21
6.6874875179
 31
0.0
  0
LINE
  5
1B5
330
1F
100
AcDbEntity
  8
0
  6
Continuous
 62
     7
370
    15
100
AcDbLine
 10
7.4494914937
 20
5.8404890892
 30
0.0
 11
7.8480635293
 21
5.8404890892
 31
0.0
  0
LINE
  5
1B6
330
1F
100
AcDbEntity
  8
0
  6
Continuous
 62
     7
370
    15
100
AcDbLine
 10
7.8480635293
 20
5.8004882713
 30
0.0
 11
7.8480635293
 21
5.8404890892
 31
0.0
  0
LINE
  5
1B7
330
1F
100
AcDbEntity
  8
0
  6
Continuous
 62
     7
370
    15
100
AcDbLine
 10
7.4494914937
 20
5.8004882713
 30
0.0
 11
7.4494914937
 21
5.8404890892
 31
0.0
  0
LINE
  5
1B8
330
1F
100
AcDbEntity
  8
0
  6
Continuous
 62
     7
370
    15
100
AcDbLine
 10
7.4494914937
 20
5.8004882713
 30
0.0
 11
7.8480635293
 21
5.8004882713
 31
0.0
  0
LINE
  5
1B9
330
1F
100
AcDbEntity
  8
0
  6
Continuous
 62
     7
370
    15
100
AcDbLine
 10
7.4494914937
 20
5.9614888647
 30
0.0
 11
7.8480635293
 21
5.9614888647
 31
0.0
  0
LINE
  5
1BA
330
1F
100
AcDbEntity
  8
0
  6
Continuous
 62
     7
370
    15
100
AcDbLine
 10
7.8480635293
 20
5.9214880468
 30
0.0
 11
7.8480635293
 21
5.9614888647
 31
0.0
  0
LINE
  5
1BB
330
1F
100
AcDbEntity
  8
0
  6
Continuous
 62
     7
370
    15
100
AcDbLine
 10
7.4494914937
 20
5.9214880468
 30
0.0
 11
7.8480635293
 21
5.9214880468
 31
0.0
  0
LINE
  5
1BC
330
1F
100
AcDbEntity
  8
0
  6
Continuous
 62
     7
370
    15
100
AcDbLine
 10
7.4494914937
 20
5.9214880468
 30
0.0
 11
7.4494914937
 21
5.9614888647
 31
0.0
  0
LINE
  5
1BD
330
1F
100
AcDbEntity
  8
0
  6
Continuous
 62
     7
370
    15
100
AcDbLine
 10
7.4494914937
 20
6.0824886402
 30
0.0
 11
7.8480635293
 21
6.0824886402
 31
0.0
  0
LINE
  5
1BE
330
1F
100
AcDbEntity
  8
0
  6
Continuous
 62
     7
370
    15
100
AcDbLine
 10
7.8480635293
 20
6.0424878223
 30
0.0
 11
7.8480635293
 21
6.0824886402
 31
0.0
  0
LINE
  5
1BF
330
1F
100
AcDbEntity
  8
0
  6
Continuous
 62
     7
370
    15
100
AcDbLine
 10
7.4494914937
 20
6.0424878223
 30
0.0
 11
7.8480635293
 21
6.0424878223
 31
0.0
  0
LINE
  5
1C0
330
1F
100
AcDbEntity
  8
0
  6
Continuous
 62
     7
370
    15
100
AcDbLine
 10
7.4494914937
 20
6.0424878223
 30
0.0
 11
7.4494914937
 21
6.0824886402
 31
0.0
  0
LINE
  5
1C1
330
1F
100
AcDbEntity
  8
0
  6
Continuous
 62
     7
370
    15
100
AcDbLine
 10
7.4494914937
 20
6.2034884158
 30
0.0
 11
7.8480635293
 21
6.2034884158
 31
0.0
  0
LINE
  5
1C2
330
1F
100
AcDbEntity
  8
0
  6
Continuous
 62
     7
370
    15
100
AcDbLine
 10
7.8480635293
 20
6.1634875979
 30
0.0
 11
7.8480635293
 21
6.2034884158
 31
0.0
  0
LINE
  5
1C3
330
1F
100
AcDbEntity
  8
0
  6
Continuous
 62
     7
370
    15
100
AcDbLine
 10
7.4494914937
 20
6.1634875979
 30
0.0
 11
7.8480635293
 21
6.1634875979
 31
0.0
  0
LINE
  5
1C4
330
1F
100
AcDbEntity
  8
0
  6
Continuous
 62
     7
370
    15
100
AcDbLine
 10
7.4494914937
 20
6.1634875979
 30
0.0
 11
7.4494914937
 21
6.2034884158
 31
0.0
  0
LINE
  5
1C5
330
1F
100
AcDbEntity
  8
0
  6
Continuous
 62
     7
370
    15
100
AcDbLine
 10
7.4494914937
 20
6.3244881913
 30
0.0
 11
7.8480635293
 21
6.3244881913
 31
0.0
  0
LINE
  5
1C6
330
1F
100
AcDbEntity
  8
0
  6
Continuous
 62
     7
370
    15
100
AcDbLine
 10
7.8480635293
 20
6.2844873734
 30
0.0
 11
7.8480635293
 21
6.3244881913
 31
0.0
  0
LINE
  5
1C7
330
1F
100
AcDbEntity
  8
0
  6
Continuous
 62
     7
370
    15
100
AcDbLine
 10
7.4494914937
 20
6.2844873734
 30
0.0
 11
7.4494914937
 21
6.3244881913
 31
0.0
  0
LINE
  5
1C8
330
1F
100
AcDbEntity
  8
0
  6
Continuous
 62
     7
370
    15
100
AcDbLine
 10
7.4494914937
 20
6.2844873734
 30
0.0
 11
7.8480635293
 21
6.2844873734
 31
0.0
  0
LINE
  5
1C9
330
1F
100
AcDbEntity
  8
0
  6
Continuous
 62
     7
370
    15
100
AcDbLine
 10
7.4494914937
 20
6.4454879668
 30
0.0
 11
7.8480635293
 21
6.4454879668
 31
0.0
  0
LINE
  5
1CA
330
1F
100
AcDbEntity
  8
0
  6
Continuous
 62
     7
370
    15
100
AcDbLine
 10
7.8480635293
 20
6.4054894956
 30
0.0
 11
7.8480635293
 21
6.4454879668
 31
0.0
  0
LINE
  5
1CB
330
1F
100
AcDbEntity
  8
0
  6
Continuous
 62
     7
370
    15
100
AcDbLine
 10
7.4494914937
 20
6.4054894956
 30
0.0
 11
7.8480635293
 21
6.4054894956
 31
0.0
  0
LINE
  5
1CC
330
1F
100
AcDbEntity
  8
0
  6
Continuous
 62
     7
370
    15
100
AcDbLine
 10
7.4494914937
 20
6.4054894956
 30
0.0
 11
7.4494914937
 21
6.4454879668
 31
0.0
  0
LINE
  5
1CD
330
1F
100
AcDbEntity
  8
0
  6
Continuous
 62
     7
370
    15
100
AcDbLine
 10
7.4494914937
 20
6.5664877424
 30
0.0
 11
7.8480635293
 21
6.5664877424
 31
0.0
  0
LINE
  5
1CE
330
1F
100
AcDbEntity
  8
0
  6
Continuous
 62
     7
370
    15
100
AcDbLine
 10
7.8480635293
 20
6.5264892711
 30
0.0
 11
7.8480635293
 21
6.5664877424
 31
0.0
  0
LINE
  5
1CF
330
1F
100
AcDbEntity
  8
0
  6
Continuous
 62
     7
370
    15
100
AcDbLine
 10
7.4494914937
 20
6.5264892711
 30
0.0
 11
7.4494914937
 21
6.5664877424
 31
0.0
  0
LINE
  5
1D0
330
1F
100
AcDbEntity
  8
0
  6
Continuous
 62
     7
370
    15
100
AcDbLine
 10
7.4494914937
 20
6.5264892711
 30
0.0
 11
7.8480635293
 21
6.5264892711
 31
0.0
  0
LINE
  5
1D1
330
1F
100
AcDbEntity
  8
0
  6
Continuous
 62
     7
370
    15
100
AcDbLine
 10
7.4494914937
 20
7.1714889667
 30
0.0
 11
7.8480635293
 21
7.1714889667
 31
0.0
  0
LINE
  5
1D2
330
1F
100
AcDbEntity
  8
0
  6
Continuous
 62
     7
370
    15
100
AcDbLine
 10
7.8480635293
 20
7.1314881488
 30
0.0
 11
7.8480635293
 21
7.1714889667
 31
0.0
  0
LINE
  5
1D3
330
1F
100
AcDbEntity
  8
0
  6
Continuous
 62
     7
370
    15
100
AcDbLine
 10
7.4494914937
 20
7.1314881488
 30
0.0
 11
7.8480635293
 21
7.1314881488
 31
0.0
  0
LINE
  5
1D4
330
1F
100
AcDbEntity
  8
0
  6
Continuous
 62
     7
370
    15
100
AcDbLine
 10
7.4494914937
 20
7.1314881488
 30
0.0
 11
7.4494914937
 21
7.1714889667
 31
0.0
  0
LINE
  5
1D5
330
1F
100
AcDbEntity
  8
0
  6
Continuous
 62
     7
370
    15
100
AcDbLine
 10
7.4494914937
 20
6.8084872934
 30
0.0
 11
7.8480635293
 21
6.8084872934
 31
0.0
  0
LINE
  5
1D6
330
1F
100
AcDbEntity
  8
0
  6
Continuous
 62
     7
370
    15
100
AcDbLine
 10
7.8480635293
 20
6.7684888222
 30
0.0
 11
7.8480635293
 21
6.8084872934
 31
0.0
  0
LINE
  5
1D7
330
1F
100
AcDbEntity
  8
0
  6
Continuous
 62
     7
370
    15
100
AcDbLine
 10
7.4494914937
 20
6.7684888222
 30
0.0
 11
7.4494914937
 21
6.8084872934
 31
0.0
  0
LINE
  5
1D8
330
1F
100
AcDbEntity
  8
0
  6
Continuous
 62
     7
370
    15
100
AcDbLine
 10
7.4494914937
 20
6.7684888222
 30
0.0
 11
7.8480635293
 21
6.7684888222
 31
0.0
  0
LINE
  5
1D9
330
1F
100
AcDbEntity
  8
0
  6
Continuous
 62
     7
370
    15
100
AcDbLine
 10
7.4494914937
 20
6.9294894156
 30
0.0
 11
7.8480635293
 21
6.9294894156
 31
0.0
  0
LINE
  5
1DA
330
1F
100
AcDbEntity
  8
0
  6
Continuous
 62
     7
370
    15
100
AcDbLine
 10
7.4494914937
 20
6.8894885977
 30
0.0
 11
7.8480635293
 21
6.8894885977
 31
0.0
  0
LINE
  5
1DB
330
1F
100
AcDbEntity
  8
0
  6
Continuous
 62
     7
370
    15
100
AcDbLine
 10
7.4494914937
 20
6.8894885977
 30
0.0
 11
7.4494914937
 21
6.9294894156
 31
0.0
  0
LINE
  5
1DC
330
1F
100
AcDbEntity
  8
0
  6
Continuous
 62
     7
370
    15
100
AcDbLine
 10
7.8480635293
 20
6.8894885977
 30
0.0
 11
7.8480635293
 21
6.9294894156
 31
0.0
  0
LINE
  5
1DD
330
1F
100
AcDbEntity
  8
0
  6
Continuous
 62
     7
370
    15
100
AcDbLine
 10
7.4494914937
 20
7.0504891912
 30
0.0
 11
7.8480635293
 21
7.0504891912
 31
0.0
  0
LINE
  5
1DE
330
1F
100
AcDbEntity
  8
0
  6
Continuous
 62
     7
370
    15
100
AcDbLine
 10
7.8480635293
 20
7.0104883732
 30
0.0
 11
7.8480635293
 21
7.0504891912
 31
0.0
  0
LINE
  5
1DF
330
1F
100
AcDbEntity
  8
0
  6
Continuous
 62
     7
370
    15
100
AcDbLine
 10
7.4494914937
 20
7.0104883732
 30
0.0
 11
7.4494914937
 21
7.0504891912
 31
0.0
  0
LINE
  5
1E0
330
1F
100
AcDbEntity
  8
0
  6
Continuous
 62
     7
370
    15
100
AcDbLine
 10
7.4494914937
 20
7.0104883732
 30
0.0
 11
7.8480635293
 21
7.0104883732
 31
0.0
  0
LINE
  5
1E1
330
1F
100
AcDbEntity
  8
0
  6
Continuous
 62
     7
370
    15
100
AcDbLine
 10
7.4494914937
 20
7.5344882933
 30
0.0
 11
7.8480635293
 21
7.5344882933
 31
0.0
  0
LINE
  5
1E2
330
1F
100
AcDbEntity
  8
0
  6
Continuous
 62
     7
370
    15
100
AcDbLine
 10
7.4494914937
 20
7.4944874754
 30
0.0
 11
7.4494914937
 21
7.5344882933
 31
0.0
  0
LINE
  5
1E3
330
1F
100
AcDbEntity
  8
0
  6
Continuous
 62
     7
370
    15
100
AcDbLine
 10
7.4494914937
 20
7.4944874754
 30
0.0
 11
7.8480635293
 21
7.4944874754
 31
0.0
  0
LINE
  5
1E4
330
1F
100
AcDbEntity
  8
0
  6
Continuous
 62
     7
370
    15
100
AcDbLine
 10
7.8480635293
 20
7.4944874754
 30
0.0
 11
7.8480635293
 21
7.5344882933
 31
0.0
  0
LINE
  5
1E5
330
1F
100
AcDbEntity
  8
0
  6
Continuous
 62
     7
370
    15
100
AcDbLine
 10
7.4494914937
 20
7.2924887422
 30
0.0
 11
7.8480635293
 21
7.2924887422
 31
0.0
  0
LINE
  5
1E6
330
1F
100
AcDbEntity
  8
0
  6
Continuous
 62
     7
370
    15
100
AcDbLine
 10
7.8480635293
 20
7.2524879243
 30
0.0
 11
7.8480635293
 21
7.2924887422
 31
0.0
  0
LINE
  5
1E7
330
1F
100
AcDbEntity
  8
0
  6
Continuous
 62
     7
370
    15
100
AcDbLine
 10
7.4494914937
 20
7.2524879243
 30
0.0
 11
7.4494914937
 21
7.2924887422
 31
0.0
  0
LINE
  5
1E8
330
1F
100
AcDbEntity
  8
0
  6
Continuous
 62
     7
370
    15
100
AcDbLine
 10
7.4494914937
 20
7.2524879243
 30
0.0
 11
7.8480635293
 21
7.2524879243
 31
0.0
  0
ARC
  5
1E9
330
1F
100
AcDbEntity
  8
0
  6
Continuous
 62
     7
370
    15
100
AcDbCircle
 10
7.8880370134
 20
7.8500509786
 30
0.0
 40
0.0499999999999998
100
AcDbArc
 50
0.0
 51
90.0
  0
ARC
  5
1EA
330
1F
100
AcDbEntity
  8
0
  6
Continuous
 62
     7
370
    15
100
AcDbCircle
 10
7.8880370134
 20
1.3000509786
 30
0.0
 40
0.0499999999999998
100
AcDbArc
 50
270.0
 51
0.0
  0
LINE
  5
1EB
330
1F
100
AcDbEntity
  8
0
  6
Continuous
 62
     7
370
    15
100
AcDbLine
 10
7.8880361876
 20
1.2500514516
 30
0.0
 11
7.0480377846
 21
1.2500514516
 31
0.0
  0
ARC
  5
1EC
330
1F
100
AcDbEntity
  8
0
  6
Continuous
 62
     7
370
    15
100
AcDbCircle
 10
7.0480370134
 20
1.3000509786
 30
0.0
 40
0.0499999999999998
100
AcDbArc
 50
180.0
 51
270.0
  0
ARC
  5
1ED
330
1F
100
AcDbEntity
  8
0
  6
Continuous
 62
     7
370
    15
100
AcDbCircle
 10
7.0480370134
 20
7.8500509786
 30
0.0
 40
0.0499999999999998
100
AcDbArc
 50
90.0
 51
180.0
  0
LINE
  5
1EE
330
1F
100
AcDbEntity
  8
0
  6
Continuous
 62
     7
370
    15
100
AcDbLine
 10
7.0480377846
 20
7.9000501503
 30
0.0
 11
7.8880361876
 21
7.9000501503
 31
0.0
  0
LINE
  5
1EF
330
1F
100
AcDbEntity
  8
0
  6
Continuous
 62
     7
370
    15
100
AcDbLine
 10
6.9980379356
 20
1.3000513007
 30
0.0
 11
6.9980379356
 21
7.8500503012
 31
0.0
  0
LINE
  5
1F0
330
1F
100
AcDbEntity
  8
0
  6
Continuous
 62
     7
370
    15
100
AcDbLine
 10
7.9380360366
 20
7.8500503012
 30
0.0
 11
7.9380360366
 21
1.3000513007
 31
0.0
  0
ENDSEC
  0
SECTION
  2
OBJECTS
  0
DICTIONARY
  5
C
330
0
100
AcDbDictionary
281
     1
  3
ACAD_GROUP
350
D
  3
ACAD_LAYOUT
350
1A
  3
ACAD_MLEADERSTYLE
350
1F4
  3
ACAD_MLINESTYLE
350
17
  3
ACAD_PLOTSETTINGS
350
19
  3
ACAD_PLOTSTYLENAME
350
E
  3
ACAD_SCALELIST
350
3B
  3
ACAD_TABLESTYLE
350
1F3
  3
ACAD_VISUALSTYLE
350
2A
  3
AcDbVariableDictionary
350
1F1
  0
DICTIONARY
  5
D
102
{ACAD_REACTORS
330
C
102
}
330
C
100
AcDbDictionary
281
     1
  0
DICTIONARY
  5
1A
102
{ACAD_REACTORS
330
C
102
}
330
C
100
AcDbDictionary
281
     1
  3
Layout1
350
1E
  3
Layout2
350
26
  3
Model
350
22
  0
DICTIONARY
  5
1F4
102
{ACAD_REACTORS
330
C
102
}
330
C
100
AcDbDictionary
281
     1
  0
DICTIONARY
  5
17
102
{ACAD_REACTORS
330
C
102
}
330
C
100
AcDbDictionary
281
     1
  3
Standard
350
18
  0
DICTIONARY
  5
19
102
{ACAD_REACTORS
330
C
102
}
330
C
100
AcDbDictionary
281
     1
  0
ACDBDICTIONARYWDFLT
  5
E
102
{ACAD_REACTORS
330
C
102
}
330
C
100
AcDbDictionary
281
     1
  3
Normal
350
F
100
AcDbDictionaryWithDefault
340
F
  0
DICTIONARY
  5
3B
102
{ACAD_REACTORS
330
C
102
}
330
C
100
AcDbDictionary
281
     1
  3
A0
350
3C
  3
A1
350
3D
  3
A2
350
3E
  3
A3
350
3F
  3
A4
350
40
  3
A5
350
41
  3
A6
350
42
  3
A7
350
43
  3
A8
350
44
  3
A9
350
45
  3
B0
350
46
  3
B1
350
47
  3
B2
350
48
  3
B3
350
49
  3
B4
350
4A
  3
B5
350
4B
  3
B6
350
4C
  3
B7
350
4D
  3
B8
350
4E
  3
B9
350
4F
  3
C0
350
50
  3
C1
350
51
  3
C2
350
52
  3
C3
350
53
  3
C4
350
54
  3
C5
350
55
  3
C6
350
56
  3
C7
350
57
  3
C8
350
58
  3
C9
350
59
  3
D0
350
5A
  3
D1
350
5B
  3
D2
350
5C
  0
DICTIONARY
  5
1F3
102
{ACAD_REACTORS
330
C
102
}
330
C
100
AcDbDictionary
281
     1
  0
DICTIONARY
  5
2A
102
{ACAD_REACTORS
330
C
102
}
330
C
100
AcDbDictionary
281
     1
  3
2dWireframe
350
2F
  3
3D Hidden
350
31
  3
3dWireframe
350
30
  3
Basic
350
32
  3
Brighten
350
36
  3
ColorChange
350
3A
  3
Conceptual
350
34
  3
Dim
350
35
  3
Facepattern
350
39
  3
Flat
350
2B
  3
FlatWithEdges
350
2C
  3
Gouraud
350
2D
  3
GouraudWithEdges
350
2E
  3
Linepattern
350
38
  3
Realistic
350
33
  3
Thicken
350
37
  0
DICTIONARY
  5
1F1
102
{ACAD_REACTORS
330
C
102
}
330
C
100
AcDbDictionary
281
     1
  3
CANNOSCALE
350
1F2
  0
LAYOUT
  5
1E
102
{ACAD_REACTORS
330
1A
102
}
330
1A
100
AcDbPlotSettings
  1

  2
none_device
  4

  6

 40
0.0
 41
0.0
 42
0.0
 43
0.0
 44
0.0
 45
0.0
 46
0.0
 47
0.0
 48
0.0
 49
0.0
140
0.0
141
0.0
142
1.0
143
1.0
 70
   688
 72
     0
 73
     0
 74
     5
  7

 75
    16
147
1.0
148
0.0
149
0.0
100
AcDbLayout
  1
Layout1
 70
     1
 71
     1
 10
0.0
 20
0.0
 11
12.0
 21
9.0
 12
0.0
 22
0.0
 32
0.0
 14
1.0000000000E+20
 24
1.0000000000E+20
 34
1.0000000000E+20
 15
-1.0000000000E+20
 25
-1.0000000000E+20
 35
-1.0000000000E+20
146
0.0
 13
0.0
 23
0.0
 33
0.0
 16
1.0
 26
0.0
 36
0.0
 17
0.0
 27
1.0
 37
0.0
 76
     0
330
1B
  0
LAYOUT
  5
26
102
{ACAD_REACTORS
330
1A
102
}
330
1A
100
AcDbPlotSettings
  1

  2
none_device
  4

  6

 40
0.0
 41
0.0
 42
0.0
 43
0.0
 44
0.0
 45
0.0
 46
0.0
 47
0.0
 48
0.0
 49
0.0
140
0.0
141
0.0
142
1.0
143
1.0
 70
   688
 72
     0
 73
     0
 74
     5
  7

 75
    16
147
1.0
148
0.0
149
0.0
100
AcDbLayout
  1
Layout2
 70
     1
 71
     2
 10
0.0
 20
0.0
 11
0.0
 21
0.0
 12
0.0
 22
0.0
 32
0.0
 14
0.0
 24
0.0
 34
0.0
 15
0.0
 25
0.0
 35
0.0
146
0.0
 13
0.0
 23
0.0
 33
0.0
 16
1.0
 26
0.0
 36
0.0
 17
0.0
 27
1.0
 37
0.0
 76
     0
330
23
  0
LAYOUT
  5
22
102
{ACAD_REACTORS
330
1A
102
}
330
1A
100
AcDbPlotSettings
  1

  2
none_device
  4

  6

 40
0.0
 41
0.0
 42
0.0
 43
0.0
 44
0.0
 45
0.0
 46
0.0
 47
0.0
 48
0.0
 49
0.0
140
0.0
141
0.0
142
1.0
143
1.0
 70
  1712
 72
     0
 73
     0
 74
     0
  7

 75
     0
147
1.0
148
0.0
149
0.0
100
AcDbLayout
  1
Model
 70
     1
 71
     0
 10
0.0
 20
0.0
 11
11.0
 21
8.5
 12
0.0
 22
0.0
 32
0.0
 14
0.0
 24
0.0
 34
0.0
 15
11.0
 25
8.5
 35
0.0
146
0.0
 13
0.0
 23
0.0
 33
0.0
 16
1.0
 26
0.0
 36
0.0
 17
0.0
 27
1.0
 37
0.0
 76
     0
330
1F
331
29
  0
MLINESTYLE
  5
18
102
{ACAD_REACTORS
330
17
102
}
330
17
100
AcDbMlineStyle
  2
Standard
 70
     0
  3

 62
   256
 51
90.0
 52
90.0
 71
     2
 49
0.5
 62
   256
  6
BYLAYER
 49
-0.5
 62
   256
  6
BYLAYER
  0
ACDBPLACEHOLDER
  5
F
102
{ACAD_REACTORS
330
E
102
}
330
E
  0
SCALE
  5
3C
102
{ACAD_REACTORS
330
3B
102
}
330
3B
100
AcDbScale
 70
     0
300
1:1
140
1.0
141
1.0
290
     1
  0
SCALE
  5
3D
102
{ACAD_REACTORS
330
3B
102
}
330
3B
100
AcDbScale
 70
     0
300
1:2
140
1.0
141
2.0
290
     0
  0
SCALE
  5
3E
102
{ACAD_REACTORS
330
3B
102
}
330
3B
100
AcDbScale
 70
     0
300
1:4
140
1.0
141
4.0
290
     0
  0
SCALE
  5
3F
102
{ACAD_REACTORS
330
3B
102
}
330
3B
100
AcDbScale
 70
     0
300
1:5
140
1.0
141
5.0
290
     0
  0
SCALE
  5
40
102
{ACAD_REACTORS
330
3B
102
}
330
3B
100
AcDbScale
 70
     0
300
1:8
140
1.0
141
8.0
290
     0
  0
SCALE
  5
41
102
{ACAD_REACTORS
330
3B
102
}
330
3B
100
AcDbScale
 70
     0
300
1:10
140
1.0
141
10.0
290
     0
  0
SCALE
  5
42
102
{ACAD_REACTORS
330
3B
102
}
330
3B
100
AcDbScale
 70
     0
300
1:16
140
1.0
141
16.0
290
     0
  0
SCALE
  5
43
102
{ACAD_REACTORS
330
3B
102
}
330
3B
100
AcDbScale
 70
     0
300
1:20
140
1.0
141
20.0
290
     0
  0
SCALE
  5
44
102
{ACAD_REACTORS
330
3B
102
}
330
3B
100
AcDbScale
 70
     0
300
1:30
140
1.0
141
30.0
290
     0
  0
SCALE
  5
45
102
{ACAD_REACTORS
330
3B
102
}
330
3B
100
AcDbScale
 70
     0
300
1:40
140
1.0
141
40.0
290
     0
  0
SCALE
  5
46
102
{ACAD_REACTORS
330
3B
102
}
330
3B
100
AcDbScale
 70
     0
300
1:50
140
1.0
141
50.0
290
     0
  0
SCALE
  5
47
102
{ACAD_REACTORS
330
3B
102
}
330
3B
100
AcDbScale
 70
     0
300
1:100
140
1.0
141
100.0
290
     0
  0
SCALE
  5
48
102
{ACAD_REACTORS
330
3B
102
}
330
3B
100
AcDbScale
 70
     0
300
2:1
140
2.0
141
1.0
290
     0
  0
SCALE
  5
49
102
{ACAD_REACTORS
330
3B
102
}
330
3B
100
AcDbScale
 70
     0
300
4:1
140
4.0
141
1.0
290
     0
  0
SCALE
  5
4A
102
{ACAD_REACTORS
330
3B
102
}
330
3B
100
AcDbScale
 70
     0
300
8:1
140
8.0
141
1.0
290
     0
  0
SCALE
  5
4B
102
{ACAD_REACTORS
330
3B
102
}
330
3B
100
AcDbScale
 70
     0
300
10:1
140
10.0
141
1.0
290
     0
  0
SCALE
  5
4C
102
{ACAD_REACTORS
330
3B
102
}
330
3B
100
AcDbScale
 70
     0
300
100:1
140
100.0
141
1.0
290
     0
  0
SCALE
  5
4D
102
{ACAD_REACTORS
330
3B
102
}
330
3B
100
AcDbScale
 70
     0
300
1/128" = 1'-0"
140
0.0078125
141
12.0
290
     0
  0
SCALE
  5
4E
102
{ACAD_REACTORS
330
3B
102
}
330
3B
100
AcDbScale
 70
     0
300
1/64" = 1'-0"
140
0.015625
141
12.0
290
     0
  0
SCALE
  5
4F
102
{ACAD_REACTORS
330
3B
102
}
330
3B
100
AcDbScale
 70
     0
300
1/32" = 1'-0"
140
0.03125
141
12.0
290
     0
  0
SCALE
  5
50
102
{ACAD_REACTORS
330
3B
102
}
330
3B
100
AcDbScale
 70
     0
300
1/16" = 1'-0"
140
0.0625
141
12.0
290
     0
  0
SCALE
  5
51
102
{ACAD_REACTORS
330
3B
102
}
330
3B
100
AcDbScale
 70
     0
300
3/32" = 1'-0"
140
0.09375
141
12.0
290
     0
  0
SCALE
  5
52
102
{ACAD_REACTORS
330
3B
102
}
330
3B
100
AcDbScale
 70
     0
300
1/8" = 1'-0"
140
0.125
141
12.0
290
     0
  0
SCALE
  5
53
102
{ACAD_REACTORS
330
3B
102
}
330
3B
100
AcDbScale
 70
     0
300
3/16" = 1'-0"
140
0.1875
141
12.0
290
     0
  0
SCALE
  5
54
102
{ACAD_REACTORS
330
3B
102
}
330
3B
100
AcDbScale
 70
     0
300
1/4" = 1'-0"
140
0.25
141
12.0
290
     0
  0
SCALE
  5
55
102
{ACAD_REACTORS
330
3B
102
}
330
3B
100
AcDbScale
 70
     0
300
3/8" = 1'-0"
140
0.375
141
12.0
290
     0
  0
SCALE
  5
56
102
{ACAD_REACTORS
330
3B
102
}
330
3B
100
AcDbScale
 70
     0
300
1/2" = 1'-0"
140
0.5
141
12.0
290
     0
  0
SCALE
  5
57
102
{ACAD_REACTORS
330
3B
102
}
330
3B
100
AcDbScale
 70
     0
300
3/4" = 1'-0"
140
0.75
141
12.0
290
     0
  0
SCALE
  5
58
102
{ACAD_REACTORS
330
3B
102
}
330
3B
100
AcDbScale
 70
     0
300
1" = 1'-0"
140
1.0
141
12.0
290
     0
  0
SCALE
  5
59
102
{ACAD_REACTORS
330
3B
102
}
330
3B
100
AcDbScale
 70
     0
300
1-1/2" = 1'-0"
140
1.5
141
12.0
290
     0
  0
SCALE
  5
5A
102
{ACAD_REACTORS
330
3B
102
}
330
3B
100
AcDbScale
 70
     0
300
3" = 1'-0"
140
3.0
141
12.0
290
     0
  0
SCALE
  5
5B
102
{ACAD_REACTORS
330
3B
102
}
330
3B
100
AcDbScale
 70
     0
300
6" = 1'-0"
140
6.0
141
12.0
290
     0
  0
SCALE
  5
5C
102
{ACAD_REACTORS
330
3B
102
}
330
3B
100
AcDbScale
 70
     0
300
1'-0" = 1'-0"
140
12.0
141
12.0
290
     0
  0
VISUALSTYLE
  5
2F
102
{ACAD_REACTORS
330
2A
102
}
330
2A
100
AcDbVisualStyle
  2
2dWireframe
 70
     4
 71
     0
 72
     2
 73
     0
 90
        0
 40
-0.6
 41
-30.0
 62
     5
 63
     7
 74
     1
 91
        4
 64
     7
 65
   257
 75
     1
175
     1
 42
1.0
 92
        0
 66
   257
 43
1.0
 76
     1
 77
     6
 78
     2
 67
     7
 79
     5
170
     0
171
     0
290
     0
174
     0
 93
        1
 44
0.0
173
     0
291
     0
 45
0.0
1001
ACAD
1000
AcDbSavedByObjectVersion
1070
     0
  0
VISUALSTYLE
  5
31
102
{ACAD_REACTORS
330
2A
102
}
330
2A
100
AcDbVisualStyle
  2
3D Hidden
 70
     6
 71
     1
 72
     2
 73
     2
 90
        0
 40
-0.6
 41
-30.0
 62
     5
 63
     7
 74
     2
 91
        2
 64
     7
 65
   257
 75
     2
175
     1
 42
40.0
 92
        0
 66
   257
 43
1.0
 76
     1
 77
     6
 78
     2
 67
     7
 79
     3
170
     0
171
     0
290
     0
174
     0
 93
        1
 44
0.0
173
     0
291
     0
 45
0.0
1001
ACAD
1000
AcDbSavedByObjectVersion
1070
     0
  0
VISUALSTYLE
  5
30
102
{ACAD_REACTORS
330
2A
102
}
330
2A
100
AcDbVisualStyle
  2
3dWireframe
 70
     5
 71
     0
 72
     2
 73
     0
 90
        0
 40
-0.6
 41
-30.0
 62
     5
 63
     7
 74
     1
 91
        4
 64
     7
 65
   257
 75
     1
175
     1
 42
1.0
 92
        0
 66
   257
 43
1.0
 76
     1
 77
     6
 78
     2
 67
     7
 79
     5
170
     0
171
     0
290
     0
174
     0
 93
        1
 44
0.0
173
     0
291
     0
 45
0.0
1001
ACAD
1000
AcDbSavedByObjectVersion
1070
     0
  0
VISUALSTYLE
  5
32
102
{ACAD_REACTORS
330
2A
102
}
330
2A
100
AcDbVisualStyle
  2
Basic
 70
     7
 71
     1
 72
     0
 73
     1
 90
        0
 40
-0.6
 41
-30.0
 62
     5
 63
     7
 74
     0
 91
        4
 64
     7
 65
   257
 75
     1
175
     1
 42
1.0
 92
        8
 66
     7
 43
1.0
 76
     1
 77
     6
 78
     2
 67
     7
 79
     5
170
     0
171
     0
290
     0
174
     0
 93
        1
 44
0.0
173
     0
291
     1
 45
0.0
1001
ACAD
1000
AcDbSavedByObjectVersion
1070
     0
  0
VISUALSTYLE
  5
36
102
{ACAD_REACTORS
330
2A
102
}
330
2A
100
AcDbVisualStyle
  2
Brighten
 70
    12
 71
     2
 72
     2
 73
     0
 90
        0
 40
-0.6
 41
-30.0
 62
     5
 63
     7
 74
     1
 91
        4
 64
     7
 65
   257
 75
     1
175
     1
 42
1.0
 92
        8
 66
     7
 43
1.0
 76
     1
 77
     6
 78
     2
 67
     7
 79
     5
170
     0
171
     0
290
     0
174
     0
 93
        1
 44
50.0
173
     0
291
     1
 45
0.0
1001
ACAD
1000
AcDbSavedByObjectVersion
1070
     0
  0
VISUALSTYLE
  5
3A
102
{ACAD_REACTORS
330
2A
102
}
330
2A
100
AcDbVisualStyle
  2
ColorChange
 70
    16
 71
     2
 72
     2
 73
     3
 90
        0
 40
-0.6
 41
-30.0
 62
     5
 63
     8
 74
     1
 91
        4
 64
     7
 65
   257
 75
     1
175
     1
 42
1.0
 92
        8
 66
     8
 43
1.0
 76
     1
 77
     6
 78
     2
 67
     7
 79
     5
170
     0
171
     0
290
     0
174
     0
 93
        1
 44
0.0
173
     0
291
     1
 45
0.0
1001
ACAD
1000
AcDbSavedByObjectVersion
1070
     0
  0
VISUALSTYLE
  5
34
102
{ACAD_REACTORS
330
2A
102
}
330
2A
100
AcDbVisualStyle
  2
Conceptual
 70
     9
 71
     3
 72
     2
 73
     0
 90
        0
 40
-0.6
 41
-30.0
 62
     5
 63
     7
 74
     2
 91
        2
 64
     7
 65
   257
 75
     1
175
     1
 42
40.0
 92
        8
 66
     7
 43
1.0
 76
     1
 77
     6
 78
     2
 67
     7
 79
     3
170
     0
171
     0
290
     0
174
     0
 93
        1
 44
0.0
173
     0
291
     0
 45
0.0
1001
ACAD
1000
AcDbSavedByObjectVersion
1070
     0
  0
VISUALSTYLE
  5
35
102
{ACAD_REACTORS
330
2A
102
}
330
2A
100
AcDbVisualStyle
  2
Dim
 70
    11
 71
     2
 72
     2
 73
     0
 90
        0
 40
-0.6
 41
-30.0
 62
     5
 63
     7
 74
     1
 91
        4
 64
     7
 65
   257
 75
     1
175
     1
 42
1.0
 92
        8
 66
     7
 43
1.0
 76
     1
 77
     6
 78
     2
 67
     7
 79
     5
170
     0
171
     0
290
     0
174
     0
 93
        1
 44
-50.0
173
     0
291
     1
 45
0.0
1001
ACAD
1000
AcDbSavedByObjectVersion
1070
     0
  0
VISUALSTYLE
  5
39
102
{ACAD_REACTORS
330
2A
102
}
330
2A
100
AcDbVisualStyle
  2
Facepattern
 70
    15
 71
     2
 72
     2
 73
     0
 90
        0
 40
-0.6
 41
-30.0
 62
     5
 63
     7
 74
     1
 91
        4
 64
     7
 65
   257
 75
     1
175
     1
 42
1.0
 92
        8
 66
     7
 43
1.0
 76
     1
 77
     6
 78
     2
 67
     7
 79
     5
170
     0
171
     0
290
     0
174
     0
 93
        1
 44
0.0
173
     0
291
     1
 45
0.0
1001
ACAD
1000
AcDbSavedByObjectVersion
1070
     0
  0
VISUALSTYLE
  5
2B
102
{ACAD_REACTORS
330
2A
102
}
330
2A
100
AcDbVisualStyle
  2
Flat
 70
     0
 71
     2
 72
     1
 73
     1
 90
        2
 40
-0.6
 41
30.0
 62
     5
 63
     7
 74
     0
 91
        4
 64
     7
 65
   257
 75
     1
175
     1
 42
1.0
 92
        8
 66
     7
 43
1.0
 76
     1
 77
     6
 78
     2
 67
     7
 79
     5
170
     0
171
     0
290
     0
174
     0
 93
       13
 44
0.0
173
     0
291
     1
 45
0.0
1001
ACAD
1000
AcDbSavedByObjectVersion
1070
     0
  0
VISUALSTYLE
  5
2C
102
{ACAD_REACTORS
330
2A
102
}
330
2A
100
AcDbVisualStyle
  2
FlatWithEdges
 70
     1
 71
     2
 72
     1
 73
     1
 90
        2
 40
-0.6
 41
30.0
 62
     5
 63
     7
 74
     1
 91
        4
 64
     7
 65
   257
 75
     1
175
     1
 42
1.0
 92
        0
 66
   257
 43
1.0
 76
     1
 77
     6
 78
     2
 67
     7
 79
     5
170
     0
171
     0
290
     0
174
     0
 93
       13
 44
0.0
173
     0
291
     1
 45
0.0
1001
ACAD
1000
AcDbSavedByObjectVersion
1070
     0
  0
VISUALSTYLE
  5
2D
102
{ACAD_REACTORS
330
2A
102
}
330
2A
100
AcDbVisualStyle
  2
Gouraud
 70
     2
 71
     2
 72
     2
 73
     1
 90
        2
 40
-0.6
 41
30.0
 62
     5
 63
     7
 74
     0
 91
        4
 64
     7
 65
   257
 75
     1
175
     1
 42
1.0
 92
        0
 66
     7
 43
1.0
 76
     1
 77
     6
 78
     2
 67
     7
 79
     5
170
     0
171
     0
290
     0
174
     0
 93
       13
 44
0.0
173
     0
291
     1
 45
0.0
1001
ACAD
1000
AcDbSavedByObjectVersion
1070
     0
  0
VISUALSTYLE
  5
2E
102
{ACAD_REACTORS
330
2A
102
}
330
2A
100
AcDbVisualStyle
  2
GouraudWithEdges
 70
     3
 71
     2
 72
     2
 73
     1
 90
        2
 40
-0.6
 41
30.0
 62
     5
 63
     7
 74
     1
 91
        4
 64
     7
 65
   257
 75
     1
175
     1
 42
1.0
 92
        0
 66
   257
 43
1.0
 76
     1
 77
     6
 78
     2
 67
     7
 79
     5
170
     0
171
     0
290
     0
174
     0
 93
       13
 44
0.0
173
     0
291
     1
 45
0.0
1001
ACAD
1000
AcDbSavedByObjectVersion
1070
     0
  0
VISUALSTYLE
  5
38
102
{ACAD_REACTORS
330
2A
102
}
330
2A
100
AcDbVisualStyle
  2
Linepattern
 70
    14
 71
     2
 72
     2
 73
     0
 90
        0
 40
-0.6
 41
-30.0
 62
     5
 63
     7
 74
     1
 91
        4
 64
     7
 65
   257
 75
     7
175
     7
 42
1.0
 92
        8
 66
     7
 43
1.0
 76
     1
 77
     6
 78
     2
 67
     7
 79
     5
170
     0
171
     0
290
     0
174
     0
 93
        1
 44
0.0
173
     0
291
     1
 45
0.0
1001
ACAD
1000
AcDbSavedByObjectVersion
1070
     0
  0
VISUALSTYLE
  5
33
102
{ACAD_REACTORS
330
2A
102
}
330
2A
100
AcDbVisualStyle
  2
Realistic
 70
     8
 71
     2
 72
     2
 73
     0
 90
        0
 40
-0.6
 41
-30.0
 62
     5
 63
     7
 74
     1
 91
        0
 64
     7
 65
   257
 75
     1
175
     1
 42
1.0
 92
        8
 66
     8
 43
1.0
 76
     1
 77
     6
 78
     2
 67
     7
 79
     5
170
     0
171
     0
290
     0
174
     0
 93
       13
 44
0.0
173
     0
291
     0
 45
0.0
1001
ACAD
1000
AcDbSavedByObjectVersion
1070
     0
  0
VISUALSTYLE
  5
37
102
{ACAD_REACTORS
330
2A
102
}
330
2A
100
AcDbVisualStyle
  2
Thicken
 70
    13
 71
     2
 72
     2
 73
     0
 90
        0
 40
-0.6
 41
-30.0
 62
     5
 63
     7
 74
     1
 91
        4
 64
     7
 65
   257
 75
     1
175
     1
 42
1.0
 92
       12
 66
     7
 43
1.0
 76
     1
 77
     6
 78
     2
 67
     7
 79
     5
170
     0
171
     0
290
     0
174
     0
 93
        1
 44
0.0
173
     0
291
     1
 45
0.0
1001
ACAD
1000
AcDbSavedByObjectVersion
1070
     0
  0
DICTIONARYVAR
  5
1F2
102
{ACAD_REACTORS
330
1F1
102
}
330
1F1
100
DictionaryVariables
280
     0
  1
1:1
  0
ENDSEC
  0
EOF
